<?xml version="1.0" encoding="UTF-8"?>
<!DOCTYPE svg PUBLIC "-//W3C//DTD SVG 1.1//EN" "http://www.w3.org/Graphics/SVG/1.1/DTD/svg11.dtd">
<!-- Creator: CorelDRAW 2018 (64-Bit Evaluation Version) -->
<svg xmlns="http://www.w3.org/2000/svg" xml:space="preserve" width="0.566398in" height="0.497988in" version="1.1" style="shape-rendering:geometricPrecision; text-rendering:geometricPrecision; image-rendering:optimizeQuality; fill-rule:evenodd; clip-rule:evenodd"
viewBox="0 0 75.81 66.65"
 xmlns:xlink="http://www.w3.org/1999/xlink">
 <defs>
  <style type="text/css">
   <![CDATA[
    .fil1 {fill:#B3F1EC}
    .fil0 {fill:white}
   ]]>
  </style>
 </defs>
 <g id="Layer_x0020_1">
  <metadata id="CorelCorpID_0Corel-Layer"/>
  <path class="fil0" d="M26.37 50.42l8.29 14.35c0.69,1.2 1.88,1.88 3.26,1.88 1.38,0 2.57,-0.69 3.26,-1.88l34.12 -59.13c0.69,-1.2 0.69,-2.56 -0,-3.76 -0.69,-1.2 -1.88,-1.88 -3.26,-1.88l-16.57 0c-1.38,0 -2.57,0.68 -3.26,1.88l-25.84 44.78c-0.69,1.2 -0.69,2.56 0,3.76z"/>
  <path class="fil1" d="M30.04 13.01l-0.78 -1.34 -5.65 -9.79c-0.69,-1.2 -1.88,-1.88 -3.26,-1.88l-16.58 0c-1.38,0 -2.57,0.68 -3.26,1.88 -0.69,1.2 -0.69,2.56 0,3.76l9.8 16.97 0.78 1.34 1.6 2.77 5.44 9.42c0.69,1.2 1.88,1.88 3.26,1.88 1.38,0 2.57,-0.68 3.26,-1.88l8.29 -14.36c0.69,-1.2 0.69,-2.56 0,-3.76l-2.19 -3.79 -0.7 -1.22z"/>
 </g>
</svg>
