<?xml version="1.0" encoding="UTF-8"?>
<!DOCTYPE svg PUBLIC "-//W3C//DTD SVG 1.1//EN" "http://www.w3.org/Graphics/SVG/1.1/DTD/svg11.dtd">
<!-- Creator: CorelDRAW 2018 (64-Bit Evaluation Version) -->
<svg xmlns="http://www.w3.org/2000/svg" xml:space="preserve" width="1.8147in" height="1.49926in" version="1.1" style="shape-rendering:geometricPrecision; text-rendering:geometricPrecision; image-rendering:optimizeQuality; fill-rule:evenodd; clip-rule:evenodd"
viewBox="0 0 1303.41 1076.85"
 xmlns:xlink="http://www.w3.org/1999/xlink">
 <defs>
  <style type="text/css">
   <![CDATA[
    .fil6 {fill:#D00012}
    .fil5 {fill:#E0FAF8}
    .fil8 {fill:#00332A;fill-rule:nonzero}
    .fil4 {fill:#333332;fill-rule:nonzero}
    .fil2 {fill:#336666;fill-rule:nonzero}
    .fil1 {fill:#61E6CD;fill-rule:nonzero}
    .fil0 {fill:#B3F1EC;fill-rule:nonzero}
    .fil3 {fill:#E0FAF8;fill-rule:nonzero}
    .fil7 {fill:yellow;fill-rule:nonzero}
   ]]>
  </style>
 </defs>
 <g id="Layer_x0020_1">
  <metadata id="CorelCorpID_0Corel-Layer"/>
  <path class="fil0" d="M1219.26 64.54l23.32 21.48 30.26 -9.45 6.94 -30.93 -23.31 -21.48 -30.26 9.45 -6.94 30.93zm17.89 45.63l-41.52 -38.26 12.37 -55.08 53.89 -16.83 41.52 38.25 -12.37 55.09 -53.89 16.83z"/>
  <polygon class="fil1" points="50.42,600.4 -0,629.51 -0,857.61 50.42,828.5 149.19,771.47 149.19,543.37 "/>
  <polygon class="fil2" points="352.11,881.36 237.54,822.48 149.19,771.47 149.19,975.49 353.22,1076.85 "/>
  <polygon class="fil3" points="445.5,818.49 544.28,761.46 544.28,533.36 445.5,590.39 346.74,647.41 346.74,875.51 "/>
  <path class="fil2" d="M304.23 766.76c-3.23,0 -5.86,-2.63 -5.86,-5.86 0,-3.23 2.63,-5.86 5.86,-5.86 3.23,0 5.86,2.63 5.86,5.86 0,3.24 -2.63,5.86 -5.86,5.86zm0 -17.59c-6.47,0 -11.72,5.26 -11.72,11.72 0,6.47 5.26,11.73 11.72,11.73 6.47,0 11.73,-5.26 11.73,-11.73 0,-6.46 -5.26,-11.72 -11.73,-11.72z"/>
  <path class="fil2" d="M168.67 750.76c2.89,0 5.24,2.36 5.24,5.24 0,2.89 -2.36,5.24 -5.24,5.24 -2.89,0 -5.24,-2.35 -5.24,-5.24 0,-2.89 2.35,-5.24 5.24,-5.24zm0 15.73c5.78,0 10.48,-4.7 10.48,-10.49 0,-5.78 -4.7,-10.49 -10.48,-10.49 -5.78,0 -10.49,4.7 -10.49,10.49 0,5.78 4.7,10.49 10.49,10.49z"/>
  <path class="fil2" d="M304.23 685.6c-3.23,0 -5.86,-2.63 -5.86,-5.86 0,-3.23 2.63,-5.86 5.86,-5.86 3.23,0 5.86,2.63 5.86,5.86 0,3.23 -2.63,5.86 -5.86,5.86zm0 -17.59c-6.47,0 -11.72,5.26 -11.72,11.72 0,6.47 5.26,11.73 11.72,11.73 6.47,0 11.73,-5.26 11.73,-11.73 0,-6.46 -5.26,-11.72 -11.73,-11.72z"/>
  <path class="fil2" d="M304.23 722.91c-3.23,0 -5.86,-2.63 -5.86,-5.86 0,-3.23 2.63,-5.86 5.86,-5.86 3.23,0 5.86,2.63 5.86,5.86 0,3.23 -2.63,5.86 -5.86,5.86zm0 -17.59c-6.47,0 -11.72,5.26 -11.72,11.72 0,6.47 5.26,11.73 11.72,11.73 6.47,0 11.73,-5.26 11.73,-11.73 0,-6.46 -5.26,-11.72 -11.73,-11.72z"/>
  <path class="fil2" d="M346.74 772.2l0 -6.34c-1.66,-1.03 -2.77,-2.86 -2.77,-4.96 0,-2.09 1.11,-3.92 2.77,-4.96l0 -6.34c-4.97,1.36 -8.64,5.91 -8.64,11.3 0,5.4 3.67,9.94 8.64,11.3z"/>
  <path class="fil2" d="M346.74 728.35l0 -6.34c-1.66,-1.03 -2.77,-2.86 -2.77,-4.96 0,-2.1 1.11,-3.92 2.77,-4.96l0 -6.34c-4.97,1.36 -8.64,5.9 -8.64,11.3 0,5.4 3.67,9.94 8.64,11.3z"/>
  <path class="fil2" d="M338.1 679.74c0,5.4 3.67,9.94 8.64,11.3l0 -6.34c-1.66,-1.03 -2.77,-2.86 -2.77,-4.96 0,-2.1 1.11,-3.92 2.77,-4.96l0 -6.34c-4.97,1.36 -8.64,5.9 -8.64,11.3z"/>
  <path class="fil2" d="M304.23 649.5c-3.23,0 -5.86,-2.63 -5.86,-5.86 0,-3.23 2.63,-5.86 5.86,-5.86 3.23,0 5.86,2.63 5.86,5.86 0,3.23 -2.63,5.86 -5.86,5.86zm0 -17.59c-6.47,0 -11.72,5.26 -11.72,11.73 0,6.46 5.26,11.72 11.72,11.72 6.47,0 11.73,-5.26 11.73,-11.72 0,-6.47 -5.26,-11.73 -11.73,-11.73z"/>
  <path class="fil2" d="M346.74 654.93l0 -6.34c-1.49,-0.93 -2.51,-2.51 -2.71,-4.35l-5.61 -3.24c-0.2,0.85 -0.31,1.72 -0.31,2.63 0,5.39 3.67,9.93 8.64,11.3z"/>
  <path class="fil2" d="M213.03 766.76c-3.23,0 -5.86,-2.63 -5.86,-5.86 0,-3.23 2.63,-5.86 5.86,-5.86 3.23,0 5.86,2.63 5.86,5.86 0,3.24 -2.63,5.86 -5.86,5.86zm0 -17.59c-6.46,0 -11.72,5.26 -11.72,11.72 0,6.47 5.26,11.73 11.72,11.73 6.47,0 11.72,-5.26 11.72,-11.73 0,-6.46 -5.26,-11.72 -11.72,-11.72z"/>
  <path class="fil2" d="M168.67 721.05c-2.89,0 -5.24,-2.35 -5.24,-5.24 0,-2.89 2.35,-5.24 5.24,-5.24 2.89,0 5.24,2.35 5.24,5.24 0,2.89 -2.36,5.24 -5.24,5.24zm0 -15.73c-5.78,0 -10.49,4.7 -10.49,10.49 0,5.78 4.7,10.49 10.49,10.49 5.78,0 10.48,-4.7 10.48,-10.49 0,-5.78 -4.7,-10.49 -10.48,-10.49z"/>
  <path class="fil2" d="M213.03 583.56c5.32,0 9.82,-3.57 11.25,-8.44l-5.4 -3.12c-0.09,3.16 -2.67,5.7 -5.85,5.7 -3.23,0 -5.86,-2.63 -5.86,-5.86 0,-2.11 1.13,-3.94 2.8,-4.98l-5.4 -3.12c-2.01,2.11 -3.26,4.96 -3.26,8.1 0,6.46 5.26,11.73 11.72,11.73z"/>
  <path class="fil2" d="M213.03 685.6c-3.23,0 -5.86,-2.63 -5.86,-5.86 0,-3.23 2.63,-5.86 5.86,-5.86 3.23,0 5.86,2.63 5.86,5.86 0,3.23 -2.63,5.86 -5.86,5.86zm0 -17.59c-6.46,0 -11.72,5.26 -11.72,11.72 0,6.47 5.26,11.73 11.72,11.73 6.47,0 11.72,-5.26 11.72,-11.73 0,-6.46 -5.26,-11.72 -11.72,-11.72z"/>
  <path class="fil2" d="M213.03 722.91c-3.23,0 -5.86,-2.63 -5.86,-5.86 0,-3.23 2.63,-5.86 5.86,-5.86 3.23,0 5.86,2.63 5.86,5.86 0,3.23 -2.63,5.86 -5.86,5.86zm0 -17.59c-6.46,0 -11.72,5.26 -11.72,11.72 0,6.47 5.26,11.73 11.72,11.73 6.47,0 11.72,-5.26 11.72,-11.73 0,-6.46 -5.26,-11.72 -11.72,-11.72z"/>
  <path class="fil2" d="M167.43 649.5c-3.23,0 -5.86,-2.63 -5.86,-5.86 0,-3.23 2.63,-5.86 5.86,-5.86 3.23,0 5.86,2.63 5.86,5.86 0,3.23 -2.63,5.86 -5.86,5.86zm0 -17.59c-6.47,0 -11.72,5.26 -11.72,11.73 0,6.46 5.26,11.72 11.72,11.72 6.46,0 11.72,-5.26 11.72,-11.72 0,-6.47 -5.26,-11.73 -11.72,-11.73z"/>
  <path class="fil2" d="M264.49 606.33c0,3.23 -2.63,5.86 -5.86,5.86 -3.23,0 -5.86,-2.63 -5.86,-5.86 0,-3.23 2.63,-5.86 5.86,-5.86 3.23,0 5.86,2.63 5.86,5.86zm-17.59 0c0,6.46 5.26,11.72 11.73,11.72 6.46,0 11.73,-5.26 11.73,-11.72 0,-1.94 -0.48,-3.76 -1.32,-5.38l-10.95 -6.32c-6.21,0.28 -11.19,5.42 -11.19,11.7z"/>
  <path class="fil2" d="M167.43 685.6c-3.23,0 -5.86,-2.63 -5.86,-5.86 0,-3.23 2.63,-5.86 5.86,-5.86 3.23,0 5.86,2.63 5.86,5.86 0,3.23 -2.63,5.86 -5.86,5.86zm0 -17.59c-6.47,0 -11.72,5.26 -11.72,11.72 0,6.47 5.26,11.73 11.72,11.73 6.46,0 11.72,-5.26 11.72,-11.73 0,-6.46 -5.26,-11.72 -11.72,-11.72z"/>
  <path class="fil2" d="M213.03 649.5c-3.23,0 -5.86,-2.63 -5.86,-5.86 0,-3.23 2.63,-5.86 5.86,-5.86 3.23,0 5.86,2.63 5.86,5.86 0,3.23 -2.63,5.86 -5.86,5.86zm0 -17.59c-6.46,0 -11.72,5.26 -11.72,11.73 0,6.46 5.26,11.72 11.72,11.72 6.47,0 11.72,-5.26 11.72,-11.72 0,-6.47 -5.26,-11.73 -11.72,-11.73z"/>
  <path class="fil2" d="M213.03 612.19c-3.23,0 -5.86,-2.63 -5.86,-5.86 0,-3.23 2.63,-5.86 5.86,-5.86 3.23,0 5.86,2.63 5.86,5.86 0,3.23 -2.63,5.86 -5.86,5.86zm0 -17.59c-6.46,0 -11.72,5.26 -11.72,11.73 0,6.46 5.26,11.72 11.72,11.72 6.47,0 11.72,-5.26 11.72,-11.72 0,-6.47 -5.26,-11.73 -11.72,-11.73z"/>
  <path class="fil2" d="M167.43 577.69c-3.23,0 -5.86,-2.63 -5.86,-5.86 0,-3.23 2.63,-5.86 5.86,-5.86 3.23,0 5.86,2.63 5.86,5.86 0,3.23 -2.63,5.86 -5.86,5.86zm0 -17.59c-6.47,0 -11.72,5.26 -11.72,11.73 0,6.46 5.26,11.73 11.72,11.73 6.46,0 11.72,-5.26 11.72,-11.73 0,-6.47 -5.26,-11.73 -11.72,-11.73z"/>
  <path class="fil2" d="M258.63 766.76c-3.23,0 -5.86,-2.63 -5.86,-5.86 0,-3.23 2.63,-5.86 5.86,-5.86 3.23,0 5.86,2.63 5.86,5.86 0,3.24 -2.63,5.86 -5.86,5.86zm0 -17.59c-6.46,0 -11.73,5.26 -11.73,11.72 0,6.47 5.26,11.73 11.73,11.73 6.46,0 11.73,-5.26 11.73,-11.73 0,-6.46 -5.26,-11.72 -11.73,-11.72z"/>
  <path class="fil2" d="M167.43 546.25c1.76,0 3.43,-0.4 4.94,-1.1l-16.61 -9.59c0.52,5.98 5.55,10.69 11.67,10.69z"/>
  <path class="fil2" d="M258.63 685.6c-3.23,0 -5.86,-2.63 -5.86,-5.86 0,-3.23 2.63,-5.86 5.86,-5.86 3.23,0 5.86,2.63 5.86,5.86 0,3.23 -2.63,5.86 -5.86,5.86zm0 -17.59c-6.46,0 -11.73,5.26 -11.73,11.72 0,6.47 5.26,11.73 11.73,11.73 6.46,0 11.73,-5.26 11.73,-11.73 0,-6.46 -5.26,-11.72 -11.73,-11.72z"/>
  <path class="fil2" d="M258.63 649.5c-3.23,0 -5.86,-2.63 -5.86,-5.86 0,-3.23 2.63,-5.86 5.86,-5.86 3.23,0 5.86,2.63 5.86,5.86 0,3.23 -2.63,5.86 -5.86,5.86zm0 -17.59c-6.46,0 -11.73,5.26 -11.73,11.73 0,6.46 5.26,11.72 11.73,11.72 6.46,0 11.73,-5.26 11.73,-11.72 0,-6.47 -5.26,-11.73 -11.73,-11.73z"/>
  <path class="fil2" d="M258.63 722.91c-3.23,0 -5.86,-2.63 -5.86,-5.86 0,-3.23 2.63,-5.86 5.86,-5.86 3.23,0 5.86,2.63 5.86,5.86 0,3.23 -2.63,5.86 -5.86,5.86zm0 -17.59c-6.46,0 -11.73,5.26 -11.73,11.72 0,6.47 5.26,11.73 11.73,11.73 6.46,0 11.73,-5.26 11.73,-11.73 0,-6.46 -5.26,-11.72 -11.73,-11.72z"/>
  <path class="fil2" d="M167.43 612.19c-3.23,0 -5.86,-2.63 -5.86,-5.86 0,-3.23 2.63,-5.86 5.86,-5.86 3.23,0 5.86,2.63 5.86,5.86 0,3.23 -2.63,5.86 -5.86,5.86zm0 -17.59c-6.47,0 -11.72,5.26 -11.72,11.73 0,6.46 5.26,11.72 11.72,11.72 6.46,0 11.72,-5.26 11.72,-11.72 0,-6.47 -5.26,-11.73 -11.72,-11.73z"/>
  <path class="fil4" d="M436.52 794.45c-0.85,-0.85 -2.24,-0.86 -3.1,0 -0.86,0.85 -0.86,2.24 0,3.1l2.52 2.52 3.93 -2.27 -3.35 -3.35z"/>
  <path class="fil4" d="M373.37 844.43c0,1.22 -0.99,2.22 -2.22,2.22 -1.23,0 -2.22,-1 -2.22,-2.22 0,-1.23 0.99,-2.22 2.22,-2.22 1.23,0 2.22,0.99 2.22,2.22z"/>
  <path class="fil4" d="M430.97 807.41c0,1.23 -0.99,2.23 -2.22,2.23 -1.23,0 -2.22,-1 -2.22,-2.23 0,-1.22 0.99,-2.22 2.22,-2.22 1.23,0 2.22,0.99 2.22,2.22z"/>
  <path class="fil4" d="M443.47 807.41c0,1.23 -0.99,2.23 -2.22,2.23 -1.23,0 -2.22,-1 -2.22,-2.23 0,-1.22 0.99,-2.22 2.22,-2.22 1.23,0 2.22,0.99 2.22,2.22z"/>
  <path class="fil4" d="M455.97 807.41c0,1.23 -1,2.23 -2.22,2.23 -1.23,0 -2.22,-1 -2.22,-2.23 0,-1.22 1,-2.22 2.22,-2.22 1.22,0 2.22,0.99 2.22,2.22z"/>
  <path class="fil4" d="M411.35 819.59c0,1.23 -1,2.22 -2.22,2.22 -1.23,0 -2.22,-0.99 -2.22,-2.22 0,-1.23 1,-2.22 2.22,-2.22 1.22,0 2.22,0.99 2.22,2.22z"/>
  <path class="fil4" d="M424.43 819.59c0,1.23 -0.99,2.22 -2.22,2.22 -1.23,0 -2.22,-0.99 -2.22,-2.22 0,-1.23 0.99,-2.22 2.22,-2.22 1.23,0 2.22,0.99 2.22,2.22z"/>
  <path class="fil4" d="M436.93 819.59c0,1.23 -0.99,2.22 -2.22,2.22 -1.22,0 -2.22,-0.99 -2.22,-2.22 0,-1.23 1,-2.22 2.22,-2.22 1.23,0 2.22,0.99 2.22,2.22z"/>
  <path class="fil4" d="M449.43 819.59c0,1.23 -0.99,2.22 -2.22,2.22 -1.23,0 -2.22,-0.99 -2.22,-2.22 0,-1.23 0.99,-2.22 2.22,-2.22 1.23,0 2.22,0.99 2.22,2.22z"/>
  <path class="fil4" d="M393.99 831.64c0,1.22 -1,2.22 -2.22,2.22 -1.23,0 -2.22,-1 -2.22,-2.22 0,-1.23 1,-2.22 2.22,-2.22 1.22,0 2.22,0.99 2.22,2.22z"/>
  <path class="fil4" d="M406.5 831.64c0,1.22 -1,2.22 -2.22,2.22 -1.22,0 -2.22,-1 -2.22,-2.22 0,-1.23 1,-2.22 2.22,-2.22 1.23,0 2.22,0.99 2.22,2.22z"/>
  <path class="fil4" d="M419 831.64c0,1.22 -1,2.22 -2.22,2.22 -1.23,0 -2.22,-1 -2.22,-2.22 0,-1.23 0.99,-2.22 2.22,-2.22 1.23,0 2.22,0.99 2.22,2.22z"/>
  <path class="fil4" d="M432.08 831.64c0,1.22 -0.99,2.22 -2.22,2.22 -1.23,0 -2.22,-1 -2.22,-2.22 0,-1.23 0.99,-2.22 2.22,-2.22 1.23,0 2.22,0.99 2.22,2.22z"/>
  <path class="fil4" d="M444.58 831.64c0,1.22 -1,2.22 -2.22,2.22 -1.23,0 -2.22,-1 -2.22,-2.22 0,-1.23 1,-2.22 2.22,-2.22 1.22,0 2.22,0.99 2.22,2.22z"/>
  <path class="fil4" d="M457.08 831.64c0,1.22 -1,2.22 -2.22,2.22 -1.22,0 -2.22,-1 -2.22,-2.22 0,-1.23 1,-2.22 2.22,-2.22 1.23,0 2.22,0.99 2.22,2.22z"/>
  <path class="fil4" d="M387.45 844.43c0,1.22 -1,2.22 -2.22,2.22 -1.22,0 -2.22,-1 -2.22,-2.22 0,-1.23 1,-2.22 2.22,-2.22 1.23,0 2.22,0.99 2.22,2.22z"/>
  <path class="fil4" d="M399.96 844.43c0,1.22 -1,2.22 -2.22,2.22 -1.23,0 -2.22,-1 -2.22,-2.22 0,-1.23 1,-2.22 2.22,-2.22 1.23,0 2.22,0.99 2.22,2.22z"/>
  <path class="fil4" d="M412.46 844.43c0,1.22 -1,2.22 -2.22,2.22 -1.22,0 -2.22,-1 -2.22,-2.22 0,-1.23 1,-2.22 2.22,-2.22 1.23,0 2.22,0.99 2.22,2.22z"/>
  <path class="fil4" d="M425.54 844.43c0,1.22 -1,2.22 -2.22,2.22 -1.22,0 -2.22,-1 -2.22,-2.22 0,-1.23 1,-2.22 2.22,-2.22 1.23,0 2.22,0.99 2.22,2.22z"/>
  <path class="fil4" d="M438.04 844.43c0,1.22 -1,2.22 -2.23,2.22 -1.22,0 -2.22,-1 -2.22,-2.22 0,-1.23 1,-2.22 2.22,-2.22 1.23,0 2.23,0.99 2.23,2.22z"/>
  <path class="fil4" d="M450.55 844.43c0,1.22 -1,2.22 -2.22,2.22 -1.23,0 -2.22,-1 -2.22,-2.22 0,-1.23 1,-2.22 2.22,-2.22 1.22,0 2.22,0.99 2.22,2.22z"/>
  <path class="fil4" d="M380.91 855.85c0,1.23 -1,2.22 -2.22,2.22 -1.22,0 -2.22,-1 -2.22,-2.22 0,-1.22 1,-2.22 2.22,-2.22 1.23,0 2.22,0.99 2.22,2.22z"/>
  <path class="fil4" d="M361.33 868.51c0,1.23 -0.99,2.22 -2.22,2.22 -1.23,0 -2.22,-0.99 -2.22,-2.22 0,-1.23 1,-2.22 2.22,-2.22 1.23,0 2.22,0.99 2.22,2.22z"/>
  <path class="fil4" d="M373.83 868.51c0,1.23 -1,2.22 -2.22,2.22 -1.23,0 -2.22,-0.99 -2.22,-2.22 0,-1.23 0.99,-2.22 2.22,-2.22 1.22,0 2.22,0.99 2.22,2.22z"/>
  <path class="fil4" d="M386.34 868.51c0,1.23 -1,2.22 -2.22,2.22 -1.23,0 -2.22,-0.99 -2.22,-2.22 0,-1.23 0.99,-2.22 2.22,-2.22 1.23,0 2.22,0.99 2.22,2.22z"/>
  <path class="fil4" d="M354.79 880.69c0,1.22 -1,2.22 -2.22,2.22 -1.23,0 -2.22,-1 -2.22,-2.22 0,-1.23 0.99,-2.23 2.22,-2.23 1.22,0 2.22,1 2.22,2.23z"/>
  <path class="fil4" d="M367.29 880.69c0,1.22 -1,2.22 -2.22,2.22 -1.22,0 -2.22,-1 -2.22,-2.22 0,-1.23 1,-2.23 2.22,-2.23 1.23,0 2.22,1 2.22,2.23z"/>
  <path class="fil4" d="M379.8 880.69c0,1.22 -1,2.22 -2.23,2.22 -1.22,0 -2.22,-1 -2.22,-2.22 0,-1.23 1,-2.23 2.22,-2.23 1.23,0 2.23,1 2.23,2.23z"/>
  <path class="fil4" d="M362.44 892.73c0,1.23 -0.99,2.22 -2.22,2.22 -1.23,0 -2.22,-1 -2.22,-2.22 0,-1.22 1,-2.22 2.22,-2.22 1.23,0 2.22,1 2.22,2.22z"/>
  <path class="fil4" d="M374.94 892.73c0,1.23 -0.99,2.22 -2.22,2.22 -1.23,0 -2.22,-1 -2.22,-2.22 0,-1.22 1,-2.22 2.22,-2.22 1.23,0 2.22,1 2.22,2.22z"/>
  <path class="fil4" d="M387.45 892.73c0,1.23 -0.99,2.22 -2.22,2.22 -1.22,0 -2.22,-1 -2.22,-2.22 0,-1.22 0.99,-2.22 2.22,-2.22 1.23,0 2.22,1 2.22,2.22z"/>
  <path class="fil4" d="M355.9 905.52c0,1.23 -1,2.22 -2.22,2.22 -1.23,0 -2.22,-1 -2.22,-2.22 0,-1.23 1,-2.22 2.22,-2.22 1.23,0 2.22,0.99 2.22,2.22z"/>
  <path class="fil4" d="M368.4 905.52c0,1.23 -0.99,2.22 -2.22,2.22 -1.23,0 -2.22,-1 -2.22,-2.22 0,-1.23 0.99,-2.22 2.22,-2.22 1.23,0 2.22,0.99 2.22,2.22z"/>
  <path class="fil4" d="M380.91 905.52c0,1.23 -1,2.22 -2.22,2.22 -1.22,0 -2.22,-1 -2.22,-2.22 0,-1.23 1,-2.22 2.22,-2.22 1.23,0 2.22,0.99 2.22,2.22z"/>
  <path class="fil4" d="M394.99 855.85c0,1.23 -0.99,2.22 -2.22,2.22 -1.23,0 -2.22,-1 -2.22,-2.22 0,-1.22 0.99,-2.22 2.22,-2.22 1.23,0 2.22,0.99 2.22,2.22z"/>
  <path class="fil4" d="M407.49 855.85c0,1.23 -0.99,2.22 -2.22,2.22 -1.23,0 -2.22,-1 -2.22,-2.22 0,-1.22 1,-2.22 2.22,-2.22 1.23,0 2.22,0.99 2.22,2.22z"/>
  <path class="fil4" d="M419.99 855.85c0,1.23 -1,2.22 -2.22,2.22 -1.22,0 -2.22,-1 -2.22,-2.22 0,-1.22 1,-2.22 2.22,-2.22 1.23,0 2.22,0.99 2.22,2.22z"/>
  <path class="fil4" d="M433.07 855.85c0,1.23 -1,2.22 -2.22,2.22 -1.23,0 -2.22,-1 -2.22,-2.22 0,-1.22 0.99,-2.22 2.22,-2.22 1.22,0 2.22,0.99 2.22,2.22z"/>
  <path class="fil4" d="M445.57 855.85c0,1.23 -0.99,2.22 -2.22,2.22 -1.23,0 -2.22,-1 -2.22,-2.22 0,-1.22 1,-2.22 2.22,-2.22 1.23,0 2.22,0.99 2.22,2.22z"/>
  <path class="fil4" d="M458.08 855.85c0,1.23 -1,2.22 -2.22,2.22 -1.22,0 -2.22,-1 -2.22,-2.22 0,-1.22 1,-2.22 2.22,-2.22 1.23,0 2.22,0.99 2.22,2.22z"/>
  <path class="fil4" d="M400.42 868.51c0,1.23 -1,2.22 -2.22,2.22 -1.22,0 -2.22,-0.99 -2.22,-2.22 0,-1.23 1,-2.22 2.22,-2.22 1.22,0 2.22,0.99 2.22,2.22z"/>
  <path class="fil4" d="M412.92 868.51c0,1.23 -0.99,2.22 -2.22,2.22 -1.23,0 -2.22,-0.99 -2.22,-2.22 0,-1.23 1,-2.22 2.22,-2.22 1.23,0 2.22,0.99 2.22,2.22z"/>
  <path class="fil4" d="M425.42 868.51c0,1.23 -1,2.22 -2.22,2.22 -1.22,0 -2.22,-0.99 -2.22,-2.22 0,-1.23 1,-2.22 2.22,-2.22 1.23,0 2.22,0.99 2.22,2.22z"/>
  <path class="fil4" d="M438.5 868.51c0,1.23 -1,2.22 -2.22,2.22 -1.23,0 -2.22,-0.99 -2.22,-2.22 0,-1.23 0.99,-2.22 2.22,-2.22 1.23,0 2.22,0.99 2.22,2.22z"/>
  <path class="fil4" d="M451 868.51c0,1.23 -1,2.22 -2.22,2.22 -1.23,0 -2.22,-0.99 -2.22,-2.22 0,-1.23 0.99,-2.22 2.22,-2.22 1.22,0 2.22,0.99 2.22,2.22z"/>
  <path class="fil4" d="M463.51 868.51c0,1.23 -1,2.22 -2.23,2.22 -1.22,0 -2.22,-0.99 -2.22,-2.22 0,-1.23 1,-2.22 2.22,-2.22 1.23,0 2.23,0.99 2.23,2.22z"/>
  <path class="fil4" d="M393.88 880.69c0,1.22 -1,2.22 -2.22,2.22 -1.23,0 -2.22,-1 -2.22,-2.22 0,-1.23 1,-2.23 2.22,-2.23 1.22,0 2.22,1 2.22,2.23z"/>
  <path class="fil4" d="M406.38 880.69c0,1.22 -1,2.22 -2.22,2.22 -1.22,0 -2.22,-1 -2.22,-2.22 0,-1.23 1,-2.23 2.22,-2.23 1.23,0 2.22,1 2.22,2.23z"/>
  <path class="fil4" d="M418.88 880.69c0,1.22 -1,2.22 -2.22,2.22 -1.23,0 -2.22,-1 -2.22,-2.22 0,-1.23 1,-2.23 2.22,-2.23 1.22,0 2.22,1 2.22,2.23z"/>
  <path class="fil4" d="M431.96 880.69c0,1.22 -0.99,2.22 -2.22,2.22 -1.23,0 -2.22,-1 -2.22,-2.22 0,-1.23 1,-2.23 2.22,-2.23 1.23,0 2.22,1 2.22,2.23z"/>
  <path class="fil4" d="M444.47 880.69c0,1.22 -1,2.22 -2.23,2.22 -1.22,0 -2.22,-1 -2.22,-2.22 0,-1.23 1,-2.23 2.22,-2.23 1.23,0 2.23,1 2.23,2.23z"/>
  <path class="fil4" d="M456.97 880.69c0,1.22 -0.99,2.22 -2.22,2.22 -1.22,0 -2.22,-1 -2.22,-2.22 0,-1.23 1,-2.23 2.22,-2.23 1.23,0 2.22,1 2.22,2.23z"/>
  <path class="fil4" d="M401.52 892.73c0,1.23 -1,2.22 -2.22,2.22 -1.23,0 -2.22,-1 -2.22,-2.22 0,-1.22 1,-2.22 2.22,-2.22 1.22,0 2.22,1 2.22,2.22z"/>
  <path class="fil4" d="M414.03 892.73c0,1.23 -1,2.22 -2.22,2.22 -1.23,0 -2.22,-1 -2.22,-2.22 0,-1.22 0.99,-2.22 2.22,-2.22 1.22,0 2.22,1 2.22,2.22z"/>
  <path class="fil4" d="M426.53 892.73c0,1.23 -0.99,2.22 -2.22,2.22 -1.23,0 -2.22,-1 -2.22,-2.22 0,-1.22 0.99,-2.22 2.22,-2.22 1.23,0 2.22,1 2.22,2.22z"/>
  <path class="fil4" d="M439.61 892.73c0,1.23 -1,2.22 -2.22,2.22 -1.23,0 -2.22,-1 -2.22,-2.22 0,-1.22 1,-2.22 2.22,-2.22 1.23,0 2.22,1 2.22,2.22z"/>
  <path class="fil4" d="M452.11 892.73c0,1.23 -1,2.22 -2.22,2.22 -1.23,0 -2.22,-1 -2.22,-2.22 0,-1.22 0.99,-2.22 2.22,-2.22 1.22,0 2.22,1 2.22,2.22z"/>
  <path class="fil4" d="M464.62 892.73c0,1.23 -1,2.22 -2.22,2.22 -1.23,0 -2.22,-1 -2.22,-2.22 0,-1.22 1,-2.22 2.22,-2.22 1.23,0 2.22,1 2.22,2.22z"/>
  <path class="fil4" d="M394.99 905.52c0,1.23 -0.99,2.22 -2.22,2.22 -1.23,0 -2.22,-1 -2.22,-2.22 0,-1.23 0.99,-2.22 2.22,-2.22 1.23,0 2.22,0.99 2.22,2.22z"/>
  <path class="fil4" d="M407.49 905.52c0,1.23 -0.99,2.22 -2.22,2.22 -1.23,0 -2.22,-1 -2.22,-2.22 0,-1.23 1,-2.22 2.22,-2.22 1.23,0 2.22,0.99 2.22,2.22z"/>
  <path class="fil4" d="M419.99 905.52c0,1.23 -1,2.22 -2.22,2.22 -1.22,0 -2.22,-1 -2.22,-2.22 0,-1.23 1,-2.22 2.22,-2.22 1.23,0 2.22,0.99 2.22,2.22z"/>
  <path class="fil4" d="M433.07 905.52c0,1.23 -1,2.22 -2.22,2.22 -1.23,0 -2.22,-1 -2.22,-2.22 0,-1.23 0.99,-2.22 2.22,-2.22 1.22,0 2.22,0.99 2.22,2.22z"/>
  <path class="fil4" d="M445.57 905.52c0,1.23 -0.99,2.22 -2.22,2.22 -1.23,0 -2.22,-1 -2.22,-2.22 0,-1.23 1,-2.22 2.22,-2.22 1.23,0 2.22,0.99 2.22,2.22z"/>
  <path class="fil4" d="M458.08 905.52c0,1.23 -1,2.22 -2.22,2.22 -1.22,0 -2.22,-1 -2.22,-2.22 0,-1.23 1,-2.22 2.22,-2.22 1.23,0 2.22,0.99 2.22,2.22z"/>
  <path class="fil4" d="M538.57 746.32c0,1.23 -0.99,2.22 -2.22,2.22 -1.23,0 -2.22,-0.99 -2.22,-2.22 0,-1.23 0.99,-2.22 2.22,-2.22 1.23,0 2.22,0.99 2.22,2.22z"/>
  <path class="fil4" d="M519.53 758.49c0,1.22 -0.99,2.22 -2.22,2.22 -1.23,0 -2.22,-1 -2.22,-2.22 0,-1.23 0.99,-2.22 2.22,-2.22 1.23,0 2.22,1 2.22,2.22z"/>
  <path class="fil4" d="M532.03 758.49c0,1.22 -1,2.22 -2.22,2.22 -1.23,0 -2.22,-1 -2.22,-2.22 0,-1.23 1,-2.22 2.22,-2.22 1.22,0 2.22,1 2.22,2.22z"/>
  <path class="fil4" d="M501.6 770.53c0,1.23 -1,2.22 -2.22,2.22 -1.23,0 -2.22,-1 -2.22,-2.22 0,-1.22 1,-2.22 2.22,-2.22 1.22,0 2.22,1 2.22,2.22z"/>
  <path class="fil4" d="M514.68 770.53c0,1.23 -1,2.22 -2.22,2.22 -1.23,0 -2.22,-1 -2.22,-2.22 0,-1.22 1,-2.22 2.22,-2.22 1.23,0 2.22,1 2.22,2.22z"/>
  <path class="fil4" d="M527.18 770.53c0,1.23 -0.99,2.22 -2.22,2.22 -1.23,0 -2.22,-1 -2.22,-2.22 0,-1.22 0.99,-2.22 2.22,-2.22 1.23,0 2.22,1 2.22,2.22z"/>
  <path class="fil4" d="M539.68 770.53c0,1.23 -0.99,2.22 -2.22,2.22 -1.23,0 -2.22,-1 -2.22,-2.22 0,-1.22 0.99,-2.22 2.22,-2.22 1.23,0 2.22,1 2.22,2.22z"/>
  <path class="fil4" d="M482.55 783.33c0,1.23 -0.99,2.22 -2.22,2.22 -1.23,0 -2.22,-0.99 -2.22,-2.22 0,-1.23 1,-2.22 2.22,-2.22 1.23,0 2.22,1 2.22,2.22z"/>
  <path class="fil4" d="M495.06 783.33c0,1.23 -1,2.22 -2.22,2.22 -1.23,0 -2.22,-0.99 -2.22,-2.22 0,-1.23 0.99,-2.22 2.22,-2.22 1.22,0 2.22,1 2.22,2.22z"/>
  <path class="fil4" d="M508.13 783.33c0,1.23 -0.99,2.22 -2.22,2.22 -1.23,0 -2.22,-0.99 -2.22,-2.22 0,-1.23 1,-2.22 2.22,-2.22 1.22,0 2.22,1 2.22,2.22z"/>
  <path class="fil4" d="M520.64 783.33c0,1.23 -1,2.22 -2.22,2.22 -1.23,0 -2.22,-0.99 -2.22,-2.22 0,-1.23 1,-2.22 2.22,-2.22 1.23,0 2.22,1 2.22,2.22z"/>
  <path class="fil4" d="M533.14 783.33c0,1.23 -1,2.22 -2.22,2.22 -1.23,0 -2.22,-0.99 -2.22,-2.22 0,-1.23 1,-2.22 2.22,-2.22 1.22,0 2.22,1 2.22,2.22z"/>
  <path class="fil4" d="M465.73 794.75c0,1.23 -0.99,2.22 -2.22,2.22 -1.22,0 -2.22,-0.99 -2.22,-2.22 0,-1.23 1,-2.22 2.22,-2.22 1.23,0 2.22,0.99 2.22,2.22z"/>
  <path class="fil4" d="M478.23 794.75c0,1.23 -1,2.22 -2.22,2.22 -1.23,0 -2.22,-0.99 -2.22,-2.22 0,-1.23 0.99,-2.22 2.22,-2.22 1.23,0 2.22,0.99 2.22,2.22z"/>
  <path class="fil4" d="M490.73 794.75c0,1.23 -0.99,2.22 -2.22,2.22 -1.22,0 -2.22,-0.99 -2.22,-2.22 0,-1.23 1,-2.22 2.22,-2.22 1.23,0 2.22,0.99 2.22,2.22z"/>
  <path class="fil4" d="M503.81 794.75c0,1.23 -1,2.22 -2.22,2.22 -1.23,0 -2.22,-0.99 -2.22,-2.22 0,-1.23 1,-2.22 2.22,-2.22 1.22,0 2.22,0.99 2.22,2.22z"/>
  <path class="fil4" d="M516.32 794.75c0,1.23 -1,2.22 -2.23,2.22 -1.23,0 -2.22,-0.99 -2.22,-2.22 0,-1.23 0.99,-2.22 2.22,-2.22 1.23,0 2.23,0.99 2.23,2.22z"/>
  <path class="fil4" d="M528.82 794.75c0,1.23 -1,2.22 -2.22,2.22 -1.23,0 -2.22,-0.99 -2.22,-2.22 0,-1.23 1,-2.22 2.22,-2.22 1.23,0 2.22,0.99 2.22,2.22z"/>
  <path class="fil4" d="M471.16 807.41c0,1.23 -0.99,2.23 -2.22,2.23 -1.22,0 -2.22,-1 -2.22,-2.23 0,-1.22 1,-2.22 2.22,-2.22 1.23,0 2.22,0.99 2.22,2.22z"/>
  <path class="fil4" d="M483.66 807.41c0,1.23 -1,2.23 -2.22,2.23 -1.23,0 -2.22,-1 -2.22,-2.23 0,-1.22 1,-2.22 2.22,-2.22 1.23,0 2.22,0.99 2.22,2.22z"/>
  <path class="fil4" d="M496.16 807.41c0,1.23 -0.99,2.23 -2.22,2.23 -1.22,0 -2.22,-1 -2.22,-2.23 0,-1.22 1,-2.22 2.22,-2.22 1.23,0 2.22,0.99 2.22,2.22z"/>
  <path class="fil4" d="M509.24 807.41c0,1.23 -1,2.23 -2.23,2.23 -1.22,0 -2.22,-1 -2.22,-2.23 0,-1.22 1,-2.22 2.22,-2.22 1.23,0 2.23,0.99 2.23,2.22z"/>
  <path class="fil4" d="M521.74 807.41c0,1.23 -0.99,2.23 -2.22,2.23 -1.23,0 -2.22,-1 -2.22,-2.23 0,-1.22 0.99,-2.22 2.22,-2.22 1.22,0 2.22,0.99 2.22,2.22z"/>
  <path class="fil4" d="M534.25 807.41c0,1.23 -0.99,2.23 -2.22,2.23 -1.23,0 -2.22,-1 -2.22,-2.23 0,-1.22 0.99,-2.22 2.22,-2.22 1.23,0 2.22,0.99 2.22,2.22z"/>
  <path class="fil4" d="M464.62 819.59c0,1.23 -1,2.22 -2.22,2.22 -1.23,0 -2.22,-0.99 -2.22,-2.22 0,-1.23 1,-2.22 2.22,-2.22 1.23,0 2.22,0.99 2.22,2.22z"/>
  <path class="fil4" d="M477.12 819.59c0,1.23 -0.99,2.22 -2.22,2.22 -1.22,0 -2.22,-0.99 -2.22,-2.22 0,-1.23 1,-2.22 2.22,-2.22 1.23,0 2.22,0.99 2.22,2.22z"/>
  <path class="fil4" d="M489.62 819.59c0,1.23 -1,2.22 -2.22,2.22 -1.22,0 -2.22,-0.99 -2.22,-2.22 0,-1.23 1,-2.22 2.22,-2.22 1.23,0 2.22,0.99 2.22,2.22z"/>
  <path class="fil4" d="M502.7 819.59c0,1.23 -0.99,2.22 -2.22,2.22 -1.23,0 -2.22,-0.99 -2.22,-2.22 0,-1.23 1,-2.22 2.22,-2.22 1.23,0 2.22,0.99 2.22,2.22z"/>
  <path class="fil4" d="M515.2 819.59c0,1.23 -0.99,2.22 -2.22,2.22 -1.22,0 -2.22,-0.99 -2.22,-2.22 0,-1.23 1,-2.22 2.22,-2.22 1.23,0 2.22,0.99 2.22,2.22z"/>
  <path class="fil4" d="M527.71 819.59c0,1.23 -1,2.22 -2.22,2.22 -1.23,0 -2.22,-0.99 -2.22,-2.22 0,-1.23 0.99,-2.22 2.22,-2.22 1.23,0 2.22,0.99 2.22,2.22z"/>
  <path class="fil4" d="M472.27 831.64c0,1.22 -1,2.22 -2.22,2.22 -1.23,0 -2.22,-1 -2.22,-2.22 0,-1.23 0.99,-2.22 2.22,-2.22 1.22,0 2.22,0.99 2.22,2.22z"/>
  <path class="fil4" d="M484.77 831.64c0,1.22 -0.99,2.22 -2.22,2.22 -1.23,0 -2.22,-1 -2.22,-2.22 0,-1.23 1,-2.22 2.22,-2.22 1.23,0 2.22,0.99 2.22,2.22z"/>
  <path class="fil4" d="M497.27 831.64c0,1.22 -1,2.22 -2.22,2.22 -1.23,0 -2.22,-1 -2.22,-2.22 0,-1.23 0.99,-2.22 2.22,-2.22 1.22,0 2.22,0.99 2.22,2.22z"/>
  <path class="fil4" d="M510.35 831.64c0,1.22 -1,2.22 -2.22,2.22 -1.23,0 -2.22,-1 -2.22,-2.22 0,-1.23 0.99,-2.22 2.22,-2.22 1.23,0 2.22,0.99 2.22,2.22z"/>
  <path class="fil4" d="M522.86 831.64c0,1.22 -1,2.22 -2.22,2.22 -1.23,0 -2.22,-1 -2.22,-2.22 0,-1.23 1,-2.22 2.22,-2.22 1.22,0 2.22,0.99 2.22,2.22z"/>
  <path class="fil4" d="M535.35 831.64c0,1.22 -0.99,2.22 -2.22,2.22 -1.22,0 -2.22,-1 -2.22,-2.22 0,-1.23 1,-2.22 2.22,-2.22 1.23,0 2.22,0.99 2.22,2.22z"/>
  <path class="fil4" d="M465.73 844.43c0,1.22 -0.99,2.22 -2.22,2.22 -1.22,0 -2.22,-1 -2.22,-2.22 0,-1.23 1,-2.22 2.22,-2.22 1.23,0 2.22,0.99 2.22,2.22z"/>
  <path class="fil4" d="M478.23 844.43c0,1.22 -1,2.22 -2.22,2.22 -1.23,0 -2.22,-1 -2.22,-2.22 0,-1.23 0.99,-2.22 2.22,-2.22 1.23,0 2.22,0.99 2.22,2.22z"/>
  <path class="fil4" d="M490.73 844.43c0,1.22 -0.99,2.22 -2.22,2.22 -1.22,0 -2.22,-1 -2.22,-2.22 0,-1.23 1,-2.22 2.22,-2.22 1.23,0 2.22,0.99 2.22,2.22z"/>
  <path class="fil4" d="M503.81 844.43c0,1.22 -1,2.22 -2.22,2.22 -1.23,0 -2.22,-1 -2.22,-2.22 0,-1.23 1,-2.22 2.22,-2.22 1.22,0 2.22,0.99 2.22,2.22z"/>
  <path class="fil4" d="M516.32 844.43c0,1.22 -1,2.22 -2.23,2.22 -1.23,0 -2.22,-1 -2.22,-2.22 0,-1.23 0.99,-2.22 2.22,-2.22 1.23,0 2.23,0.99 2.23,2.22z"/>
  <path class="fil4" d="M528.82 844.43c0,1.22 -1,2.22 -2.22,2.22 -1.23,0 -2.22,-1 -2.22,-2.22 0,-1.23 1,-2.22 2.22,-2.22 1.23,0 2.22,0.99 2.22,2.22z"/>
  <path class="fil4" d="M542.9 794.75c0,1.23 -1,2.22 -2.22,2.22 -1.23,0 -2.22,-0.99 -2.22,-2.22 0,-1.23 1,-2.22 2.22,-2.22 1.23,0 2.22,0.99 2.22,2.22z"/>
  <path class="fil4" d="M541.78 819.59c0,1.23 -0.99,2.22 -2.22,2.22 -1.23,0 -2.22,-0.99 -2.22,-2.22 0,-1.23 0.99,-2.22 2.22,-2.22 1.23,0 2.22,0.99 2.22,2.22z"/>
  <path class="fil4" d="M542.9 844.43c0,1.22 -1,2.22 -2.22,2.22 -1.23,0 -2.22,-1 -2.22,-2.22 0,-1.23 1,-2.22 2.22,-2.22 1.23,0 2.22,0.99 2.22,2.22z"/>
  <path class="fil4" d="M473.26 855.85c0,1.23 -1,2.22 -2.22,2.22 -1.22,0 -2.22,-1 -2.22,-2.22 0,-1.22 1,-2.22 2.22,-2.22 1.23,0 2.22,0.99 2.22,2.22z"/>
  <path class="fil4" d="M485.76 855.85c0,1.23 -0.99,2.22 -2.22,2.22 -1.23,0 -2.22,-1 -2.22,-2.22 0,-1.22 1,-2.22 2.22,-2.22 1.23,0 2.22,0.99 2.22,2.22z"/>
  <path class="fil4" d="M498.27 855.85c0,1.23 -1,2.22 -2.22,2.22 -1.23,0 -2.22,-1 -2.22,-2.22 0,-1.22 1,-2.22 2.22,-2.22 1.22,0 2.22,0.99 2.22,2.22z"/>
  <path class="fil4" d="M511.34 855.85c0,1.23 -1,2.22 -2.22,2.22 -1.23,0 -2.22,-1 -2.22,-2.22 0,-1.22 1,-2.22 2.22,-2.22 1.22,0 2.22,0.99 2.22,2.22z"/>
  <path class="fil4" d="M523.85 855.85c0,1.23 -1,2.22 -2.22,2.22 -1.23,0 -2.22,-1 -2.22,-2.22 0,-1.22 1,-2.22 2.22,-2.22 1.23,0 2.22,0.99 2.22,2.22z"/>
  <path class="fil4" d="M536.35 855.85c0,1.23 -1,2.22 -2.22,2.22 -1.23,0 -2.22,-1 -2.22,-2.22 0,-1.22 0.99,-2.22 2.22,-2.22 1.22,0 2.22,0.99 2.22,2.22z"/>
  <path class="fil4" d="M478.69 868.51c0,1.23 -1,2.22 -2.22,2.22 -1.23,0 -2.23,-0.99 -2.23,-2.22 0,-1.23 1,-2.22 2.23,-2.22 1.22,0 2.22,0.99 2.22,2.22z"/>
  <path class="fil4" d="M491.19 868.51c0,1.23 -0.99,2.22 -2.22,2.22 -1.23,0 -2.22,-0.99 -2.22,-2.22 0,-1.23 0.99,-2.22 2.22,-2.22 1.23,0 2.22,0.99 2.22,2.22z"/>
  <path class="fil4" d="M503.7 868.51c0,1.23 -1,2.22 -2.22,2.22 -1.23,0 -2.22,-0.99 -2.22,-2.22 0,-1.23 1,-2.22 2.22,-2.22 1.22,0 2.22,0.99 2.22,2.22z"/>
  <path class="fil4" d="M516.77 868.51c0,1.23 -1,2.22 -2.22,2.22 -1.23,0 -2.22,-0.99 -2.22,-2.22 0,-1.23 0.99,-2.22 2.22,-2.22 1.23,0 2.22,0.99 2.22,2.22z"/>
  <path class="fil4" d="M529.28 868.51c0,1.23 -1,2.22 -2.22,2.22 -1.22,0 -2.22,-0.99 -2.22,-2.22 0,-1.23 1,-2.22 2.22,-2.22 1.22,0 2.22,0.99 2.22,2.22z"/>
  <path class="fil4" d="M541.78 868.51c0,1.23 -0.99,2.22 -2.22,2.22 -1.23,0 -2.22,-0.99 -2.22,-2.22 0,-1.23 0.99,-2.22 2.22,-2.22 1.23,0 2.22,0.99 2.22,2.22z"/>
  <path class="fil4" d="M472.15 880.69c0,1.22 -0.99,2.22 -2.22,2.22 -1.23,0 -2.22,-1 -2.22,-2.22 0,-1.23 0.99,-2.23 2.22,-2.23 1.23,0 2.22,1 2.22,2.23z"/>
  <path class="fil4" d="M484.65 880.69c0,1.22 -0.99,2.22 -2.22,2.22 -1.23,0 -2.22,-1 -2.22,-2.22 0,-1.23 0.99,-2.23 2.22,-2.23 1.23,0 2.22,1 2.22,2.23z"/>
  <path class="fil4" d="M497.16 880.69c0,1.22 -1,2.22 -2.23,2.22 -1.22,0 -2.22,-1 -2.22,-2.22 0,-1.23 0.99,-2.23 2.22,-2.23 1.23,0 2.23,1 2.23,2.23z"/>
  <path class="fil4" d="M510.23 880.69c0,1.22 -0.99,2.22 -2.22,2.22 -1.22,0 -2.22,-1 -2.22,-2.22 0,-1.23 1,-2.23 2.22,-2.23 1.23,0 2.22,1 2.22,2.23z"/>
  <path class="fil4" d="M522.74 880.69c0,1.22 -1,2.22 -2.22,2.22 -1.23,0 -2.22,-1 -2.22,-2.22 0,-1.23 0.99,-2.23 2.22,-2.23 1.22,0 2.22,1 2.22,2.23z"/>
  <path class="fil4" d="M535.24 880.69c0,1.22 -1,2.22 -2.22,2.22 -1.23,0 -2.22,-1 -2.22,-2.22 0,-1.23 1,-2.23 2.22,-2.23 1.23,0 2.22,1 2.22,2.23z"/>
  <path class="fil4" d="M479.8 892.73c0,1.23 -0.99,2.22 -2.22,2.22 -1.22,0 -2.22,-1 -2.22,-2.22 0,-1.22 0.99,-2.22 2.22,-2.22 1.23,0 2.22,1 2.22,2.22z"/>
  <path class="fil4" d="M492.3 892.73c0,1.23 -1,2.22 -2.22,2.22 -1.23,0 -2.22,-1 -2.22,-2.22 0,-1.22 0.99,-2.22 2.22,-2.22 1.22,0 2.22,1 2.22,2.22z"/>
  <path class="fil4" d="M504.81 892.73c0,1.23 -1,2.22 -2.22,2.22 -1.23,0 -2.22,-1 -2.22,-2.22 0,-1.22 1,-2.22 2.22,-2.22 1.23,0 2.22,1 2.22,2.22z"/>
  <path class="fil4" d="M517.88 892.73c0,1.23 -1,2.22 -2.22,2.22 -1.23,0 -2.22,-1 -2.22,-2.22 0,-1.22 1,-2.22 2.22,-2.22 1.23,0 2.22,1 2.22,2.22z"/>
  <path class="fil4" d="M530.39 892.73c0,1.23 -1,2.22 -2.22,2.22 -1.23,0 -2.22,-1 -2.22,-2.22 0,-1.22 1,-2.22 2.22,-2.22 1.22,0 2.22,1 2.22,2.22z"/>
  <path class="fil4" d="M542.89 892.73c0,1.23 -1,2.22 -2.22,2.22 -1.22,0 -2.22,-1 -2.22,-2.22 0,-1.22 1,-2.22 2.22,-2.22 1.23,0 2.22,1 2.22,2.22z"/>
  <path class="fil4" d="M473.26 905.52c0,1.23 -1,2.22 -2.22,2.22 -1.22,0 -2.22,-1 -2.22,-2.22 0,-1.23 1,-2.22 2.22,-2.22 1.23,0 2.22,0.99 2.22,2.22z"/>
  <path class="fil4" d="M485.76 905.52c0,1.23 -0.99,2.22 -2.22,2.22 -1.23,0 -2.22,-1 -2.22,-2.22 0,-1.23 1,-2.22 2.22,-2.22 1.23,0 2.22,0.99 2.22,2.22z"/>
  <path class="fil4" d="M498.27 905.52c0,1.23 -1,2.22 -2.22,2.22 -1.23,0 -2.22,-1 -2.22,-2.22 0,-1.23 1,-2.22 2.22,-2.22 1.22,0 2.22,0.99 2.22,2.22z"/>
  <path class="fil4" d="M511.34 905.52c0,1.23 -1,2.22 -2.22,2.22 -1.23,0 -2.22,-1 -2.22,-2.22 0,-1.23 1,-2.22 2.22,-2.22 1.22,0 2.22,0.99 2.22,2.22z"/>
  <path class="fil4" d="M523.85 905.52c0,1.23 -1,2.22 -2.22,2.22 -1.23,0 -2.22,-1 -2.22,-2.22 0,-1.23 1,-2.22 2.22,-2.22 1.23,0 2.22,0.99 2.22,2.22z"/>
  <path class="fil4" d="M536.35 905.52c0,1.23 -1,2.22 -2.22,2.22 -1.23,0 -2.22,-1 -2.22,-2.22 0,-1.23 0.99,-2.22 2.22,-2.22 1.22,0 2.22,0.99 2.22,2.22z"/>
  <path class="fil4" d="M360.88 916.47c0,1.23 -1,2.22 -2.22,2.22 -1.22,0 -2.22,-0.99 -2.22,-2.22 0,-1.22 1,-2.22 2.22,-2.22 1.23,0 2.22,0.99 2.22,2.22z"/>
  <path class="fil4" d="M373.38 916.47c0,1.23 -0.99,2.22 -2.22,2.22 -1.23,0 -2.22,-0.99 -2.22,-2.22 0,-1.22 1,-2.22 2.22,-2.22 1.23,0 2.22,0.99 2.22,2.22z"/>
  <path class="fil4" d="M353.8 929.13c0,1.23 -0.99,2.22 -2.22,2.22 -1.23,0 -2.22,-0.99 -2.22,-2.22 0,-1.22 1,-2.22 2.22,-2.22 1.23,0 2.22,1 2.22,2.22z"/>
  <path class="fil4" d="M366.31 929.13c0,1.23 -1,2.22 -2.22,2.22 -1.22,0 -2.22,-0.99 -2.22,-2.22 0,-1.22 1,-2.22 2.22,-2.22 1.22,0 2.22,1 2.22,2.22z"/>
  <path class="fil4" d="M378.81 929.13c0,1.23 -0.99,2.22 -2.22,2.22 -1.22,0 -2.22,-0.99 -2.22,-2.22 0,-1.22 1,-2.22 2.22,-2.22 1.23,0 2.22,1 2.22,2.22z"/>
  <path class="fil4" d="M359.77 941.31c0,1.23 -0.99,2.22 -2.22,2.22 -1.22,0 -2.22,-0.99 -2.22,-2.22 0,-1.23 1,-2.22 2.22,-2.22 1.23,0 2.22,1 2.22,2.22z"/>
  <path class="fil4" d="M372.27 941.31c0,1.23 -1,2.22 -2.22,2.22 -1.22,0 -2.22,-0.99 -2.22,-2.22 0,-1.23 1,-2.22 2.22,-2.22 1.23,0 2.22,1 2.22,2.22z"/>
  <path class="fil4" d="M354.91 953.35c0,1.23 -1,2.22 -2.22,2.22 -1.23,0 -2.22,-0.99 -2.22,-2.22 0,-1.23 0.99,-2.22 2.22,-2.22 1.22,0 2.22,0.99 2.22,2.22z"/>
  <path class="fil4" d="M367.42 953.35c0,1.23 -0.99,2.22 -2.22,2.22 -1.23,0 -2.22,-0.99 -2.22,-2.22 0,-1.23 0.99,-2.22 2.22,-2.22 1.23,0 2.22,0.99 2.22,2.22z"/>
  <path class="fil4" d="M379.92 953.35c0,1.23 -1,2.22 -2.22,2.22 -1.23,0 -2.22,-0.99 -2.22,-2.22 0,-1.23 0.99,-2.22 2.22,-2.22 1.23,0 2.22,0.99 2.22,2.22z"/>
  <path class="fil4" d="M360.88 966.15c0,1.22 -1,2.22 -2.22,2.22 -1.22,0 -2.22,-0.99 -2.22,-2.22 0,-1.23 1,-2.22 2.22,-2.22 1.23,0 2.22,0.99 2.22,2.22z"/>
  <path class="fil4" d="M373.38 966.15c0,1.22 -0.99,2.22 -2.22,2.22 -1.23,0 -2.22,-0.99 -2.22,-2.22 0,-1.23 1,-2.22 2.22,-2.22 1.23,0 2.22,0.99 2.22,2.22z"/>
  <path class="fil4" d="M387.46 916.47c0,1.23 -1,2.22 -2.22,2.22 -1.23,0 -2.22,-0.99 -2.22,-2.22 0,-1.22 1,-2.22 2.22,-2.22 1.23,0 2.22,0.99 2.22,2.22z"/>
  <path class="fil4" d="M399.96 916.47c0,1.23 -1,2.22 -2.22,2.22 -1.23,0 -2.22,-0.99 -2.22,-2.22 0,-1.22 1,-2.22 2.22,-2.22 1.22,0 2.22,0.99 2.22,2.22z"/>
  <path class="fil4" d="M412.47 916.47c0,1.23 -1,2.22 -2.22,2.22 -1.23,0 -2.22,-0.99 -2.22,-2.22 0,-1.22 1,-2.22 2.22,-2.22 1.23,0 2.22,0.99 2.22,2.22z"/>
  <path class="fil4" d="M425.55 916.47c0,1.23 -1,2.22 -2.22,2.22 -1.23,0 -2.22,-0.99 -2.22,-2.22 0,-1.22 0.99,-2.22 2.22,-2.22 1.23,0 2.22,0.99 2.22,2.22z"/>
  <path class="fil4" d="M438.05 916.47c0,1.23 -0.99,2.22 -2.22,2.22 -1.22,0 -2.22,-0.99 -2.22,-2.22 0,-1.22 1,-2.22 2.22,-2.22 1.23,0 2.22,0.99 2.22,2.22z"/>
  <path class="fil4" d="M450.55 916.47c0,1.23 -1,2.22 -2.22,2.22 -1.23,0 -2.22,-0.99 -2.22,-2.22 0,-1.22 0.99,-2.22 2.22,-2.22 1.23,0 2.22,0.99 2.22,2.22z"/>
  <path class="fil4" d="M392.89 929.13c0,1.23 -0.99,2.22 -2.22,2.22 -1.22,0 -2.22,-0.99 -2.22,-2.22 0,-1.22 1,-2.22 2.22,-2.22 1.23,0 2.22,1 2.22,2.22z"/>
  <path class="fil4" d="M405.39 929.13c0,1.23 -1,2.22 -2.22,2.22 -1.23,0 -2.22,-0.99 -2.22,-2.22 0,-1.22 0.99,-2.22 2.22,-2.22 1.23,0 2.22,1 2.22,2.22z"/>
  <path class="fil4" d="M417.9 929.13c0,1.23 -1,2.22 -2.23,2.22 -1.22,0 -2.22,-0.99 -2.22,-2.22 0,-1.22 1,-2.22 2.22,-2.22 1.23,0 2.23,1 2.23,2.22z"/>
  <path class="fil4" d="M430.98 929.13c0,1.23 -1,2.22 -2.22,2.22 -1.23,0 -2.22,-0.99 -2.22,-2.22 0,-1.22 1,-2.22 2.22,-2.22 1.22,0 2.22,1 2.22,2.22z"/>
  <path class="fil4" d="M443.48 929.13c0,1.23 -0.99,2.22 -2.22,2.22 -1.22,0 -2.22,-0.99 -2.22,-2.22 0,-1.22 1,-2.22 2.22,-2.22 1.23,0 2.22,1 2.22,2.22z"/>
  <path class="fil4" d="M455.98 929.13c0,1.23 -1,2.22 -2.22,2.22 -1.22,0 -2.22,-0.99 -2.22,-2.22 0,-1.22 1,-2.22 2.22,-2.22 1.23,0 2.22,1 2.22,2.22z"/>
  <path class="fil4" d="M386.35 941.31c0,1.23 -1,2.22 -2.22,2.22 -1.22,0 -2.22,-0.99 -2.22,-2.22 0,-1.23 1,-2.22 2.22,-2.22 1.23,0 2.22,1 2.22,2.22z"/>
  <path class="fil4" d="M398.85 941.31c0,1.23 -0.99,2.22 -2.22,2.22 -1.22,0 -2.22,-0.99 -2.22,-2.22 0,-1.23 1,-2.22 2.22,-2.22 1.23,0 2.22,1 2.22,2.22z"/>
  <path class="fil4" d="M411.36 941.31c0,1.23 -1,2.22 -2.22,2.22 -1.23,0 -2.22,-0.99 -2.22,-2.22 0,-1.23 0.99,-2.22 2.22,-2.22 1.22,0 2.22,1 2.22,2.22z"/>
  <path class="fil4" d="M424.44 941.31c0,1.23 -1,2.22 -2.22,2.22 -1.23,0 -2.22,-0.99 -2.22,-2.22 0,-1.23 1,-2.22 2.22,-2.22 1.22,0 2.22,1 2.22,2.22z"/>
  <path class="fil4" d="M436.94 941.31c0,1.23 -1,2.22 -2.22,2.22 -1.22,0 -2.22,-0.99 -2.22,-2.22 0,-1.23 1,-2.22 2.22,-2.22 1.23,0 2.22,1 2.22,2.22z"/>
  <path class="fil4" d="M449.44 941.31c0,1.23 -0.99,2.22 -2.22,2.22 -1.23,0 -2.22,-0.99 -2.22,-2.22 0,-1.23 0.99,-2.22 2.22,-2.22 1.23,0 2.22,1 2.22,2.22z"/>
  <path class="fil4" d="M394 953.35c0,1.23 -1,2.22 -2.22,2.22 -1.23,0 -2.22,-0.99 -2.22,-2.22 0,-1.23 0.99,-2.22 2.22,-2.22 1.22,0 2.22,0.99 2.22,2.22z"/>
  <path class="fil4" d="M406.5 953.35c0,1.23 -1,2.22 -2.22,2.22 -1.23,0 -2.22,-0.99 -2.22,-2.22 0,-1.23 1,-2.22 2.22,-2.22 1.23,0 2.22,0.99 2.22,2.22z"/>
  <path class="fil4" d="M419.01 953.35c0,1.23 -1,2.22 -2.22,2.22 -1.23,0 -2.22,-0.99 -2.22,-2.22 0,-1.23 1,-2.22 2.22,-2.22 1.22,0 2.22,0.99 2.22,2.22z"/>
  <path class="fil4" d="M432.08 953.35c0,1.23 -1,2.22 -2.22,2.22 -1.23,0 -2.22,-0.99 -2.22,-2.22 0,-1.23 1,-2.22 2.22,-2.22 1.22,0 2.22,0.99 2.22,2.22z"/>
  <path class="fil4" d="M444.59 953.35c0,1.23 -1,2.22 -2.22,2.22 -1.23,0 -2.22,-0.99 -2.22,-2.22 0,-1.23 0.99,-2.22 2.22,-2.22 1.23,0 2.22,0.99 2.22,2.22z"/>
  <path class="fil4" d="M457.09 953.35c0,1.23 -0.99,2.22 -2.22,2.22 -1.22,0 -2.22,-0.99 -2.22,-2.22 0,-1.23 1,-2.22 2.22,-2.22 1.23,0 2.22,0.99 2.22,2.22z"/>
  <path class="fil4" d="M387.46 966.15c0,1.22 -1,2.22 -2.22,2.22 -1.23,0 -2.22,-0.99 -2.22,-2.22 0,-1.23 1,-2.22 2.22,-2.22 1.23,0 2.22,0.99 2.22,2.22z"/>
  <path class="fil4" d="M399.96 966.15c0,1.22 -1,2.22 -2.22,2.22 -1.23,0 -2.22,-0.99 -2.22,-2.22 0,-1.23 1,-2.22 2.22,-2.22 1.22,0 2.22,0.99 2.22,2.22z"/>
  <path class="fil4" d="M412.47 966.15c0,1.22 -1,2.22 -2.22,2.22 -1.23,0 -2.22,-0.99 -2.22,-2.22 0,-1.23 1,-2.22 2.22,-2.22 1.23,0 2.22,0.99 2.22,2.22z"/>
  <path class="fil4" d="M425.55 966.15c0,1.22 -1,2.22 -2.22,2.22 -1.23,0 -2.22,-0.99 -2.22,-2.22 0,-1.23 0.99,-2.22 2.22,-2.22 1.23,0 2.22,0.99 2.22,2.22z"/>
  <path class="fil4" d="M438.05 966.15c0,1.22 -0.99,2.22 -2.22,2.22 -1.22,0 -2.22,-0.99 -2.22,-2.22 0,-1.23 1,-2.22 2.22,-2.22 1.23,0 2.22,0.99 2.22,2.22z"/>
  <path class="fil4" d="M450.55 966.15c0,1.22 -1,2.22 -2.22,2.22 -1.23,0 -2.22,-0.99 -2.22,-2.22 0,-1.23 0.99,-2.22 2.22,-2.22 1.23,0 2.22,0.99 2.22,2.22z"/>
  <path class="fil4" d="M356.55 977.57c0,1.23 -0.99,2.22 -2.22,2.22 -1.23,0 -2.22,-0.99 -2.22,-2.22 0,-1.23 0.99,-2.22 2.22,-2.22 1.23,0 2.22,0.99 2.22,2.22z"/>
  <path class="fil4" d="M369.06 977.57c0,1.23 -1,2.22 -2.22,2.22 -1.22,0 -2.22,-0.99 -2.22,-2.22 0,-1.23 1,-2.22 2.22,-2.22 1.23,0 2.22,0.99 2.22,2.22z"/>
  <path class="fil4" d="M361.98 990.24c0,1.22 -0.99,2.22 -2.22,2.22 -1.23,0 -2.22,-1 -2.22,-2.22 0,-1.23 1,-2.22 2.22,-2.22 1.23,0 2.22,1 2.22,2.22z"/>
  <path class="fil4" d="M374.49 990.24c0,1.22 -1,2.22 -2.22,2.22 -1.23,0 -2.22,-1 -2.22,-2.22 0,-1.23 0.99,-2.22 2.22,-2.22 1.23,0 2.22,1 2.22,2.22z"/>
  <path class="fil4" d="M355.44 1002.41c0,1.23 -0.99,2.22 -2.22,2.22 -1.22,0 -2.22,-1 -2.22,-2.22 0,-1.22 1,-2.22 2.22,-2.22 1.23,0 2.22,1 2.22,2.22z"/>
  <path class="fil4" d="M367.95 1002.41c0,1.23 -0.99,2.22 -2.22,2.22 -1.22,0 -2.22,-1 -2.22,-2.22 0,-1.22 1,-2.22 2.22,-2.22 1.23,0 2.22,1 2.22,2.22z"/>
  <path class="fil4" d="M363.09 1014.45c0,1.23 -1,2.22 -2.22,2.22 -1.23,0 -2.22,-1 -2.22,-2.22 0,-1.23 0.99,-2.22 2.22,-2.22 1.22,0 2.22,1 2.22,2.22z"/>
  <path class="fil4" d="M375.59 1014.45c0,1.23 -0.99,2.22 -2.22,2.22 -1.23,0 -2.22,-1 -2.22,-2.22 0,-1.23 1,-2.22 2.22,-2.22 1.23,0 2.22,1 2.22,2.22z"/>
  <path class="fil4" d="M356.55 1027.25c0,1.23 -0.99,2.22 -2.22,2.22 -1.23,0 -2.22,-1 -2.22,-2.22 0,-1.23 0.99,-2.22 2.22,-2.22 1.23,0 2.22,1 2.22,2.22z"/>
  <path class="fil4" d="M369.06 1027.25c0,1.23 -1,2.22 -2.22,2.22 -1.22,0 -2.22,-1 -2.22,-2.22 0,-1.23 1,-2.22 2.22,-2.22 1.23,0 2.22,1 2.22,2.22z"/>
  <path class="fil4" d="M383.14 977.57c0,1.23 -1,2.22 -2.22,2.22 -1.23,0 -2.22,-0.99 -2.22,-2.22 0,-1.23 0.99,-2.22 2.22,-2.22 1.22,0 2.22,0.99 2.22,2.22z"/>
  <path class="fil4" d="M395.64 977.57c0,1.23 -0.99,2.22 -2.22,2.22 -1.23,0 -2.22,-0.99 -2.22,-2.22 0,-1.23 0.99,-2.22 2.22,-2.22 1.23,0 2.22,0.99 2.22,2.22z"/>
  <path class="fil4" d="M408.14 977.57c0,1.23 -1,2.22 -2.23,2.22 -1.22,0 -2.22,-0.99 -2.22,-2.22 0,-1.23 1,-2.22 2.22,-2.22 1.23,0 2.23,0.99 2.23,2.22z"/>
  <path class="fil4" d="M421.22 977.57c0,1.23 -1,2.22 -2.22,2.22 -1.23,0 -2.22,-0.99 -2.22,-2.22 0,-1.23 0.99,-2.22 2.22,-2.22 1.22,0 2.22,0.99 2.22,2.22z"/>
  <path class="fil4" d="M433.72 977.57c0,1.23 -1,2.22 -2.22,2.22 -1.23,0 -2.22,-0.99 -2.22,-2.22 0,-1.23 1,-2.22 2.22,-2.22 1.22,0 2.22,0.99 2.22,2.22z"/>
  <path class="fil4" d="M446.23 977.57c0,1.23 -1,2.22 -2.22,2.22 -1.23,0 -2.22,-0.99 -2.22,-2.22 0,-1.23 1,-2.22 2.22,-2.22 1.22,0 2.22,0.99 2.22,2.22z"/>
  <path class="fil4" d="M388.57 990.24c0,1.22 -1,2.22 -2.22,2.22 -1.23,0 -2.22,-1 -2.22,-2.22 0,-1.23 1,-2.22 2.22,-2.22 1.23,0 2.22,1 2.22,2.22z"/>
  <path class="fil4" d="M401.07 990.24c0,1.22 -0.99,2.22 -2.22,2.22 -1.23,0 -2.22,-1 -2.22,-2.22 0,-1.23 0.99,-2.22 2.22,-2.22 1.23,0 2.22,1 2.22,2.22z"/>
  <path class="fil4" d="M413.57 990.24c0,1.22 -1,2.22 -2.22,2.22 -1.23,0 -2.22,-1 -2.22,-2.22 0,-1.23 0.99,-2.22 2.22,-2.22 1.22,0 2.22,1 2.22,2.22z"/>
  <path class="fil4" d="M426.65 990.24c0,1.22 -0.99,2.22 -2.22,2.22 -1.23,0 -2.22,-1 -2.22,-2.22 0,-1.23 0.99,-2.22 2.22,-2.22 1.23,0 2.22,1 2.22,2.22z"/>
  <path class="fil4" d="M439.15 990.24c0,1.22 -1,2.22 -2.22,2.22 -1.22,0 -2.22,-1 -2.22,-2.22 0,-1.23 1,-2.22 2.22,-2.22 1.22,0 2.22,1 2.22,2.22z"/>
  <path class="fil4" d="M451.66 990.24c0,1.22 -0.99,2.22 -2.22,2.22 -1.23,0 -2.22,-1 -2.22,-2.22 0,-1.23 0.99,-2.22 2.22,-2.22 1.23,0 2.22,1 2.22,2.22z"/>
  <path class="fil4" d="M382.02 1002.41c0,1.23 -0.99,2.22 -2.22,2.22 -1.23,0 -2.22,-1 -2.22,-2.22 0,-1.22 0.99,-2.22 2.22,-2.22 1.23,0 2.22,1 2.22,2.22z"/>
  <path class="fil4" d="M394.53 1002.41c0,1.23 -1,2.22 -2.22,2.22 -1.23,0 -2.22,-1 -2.22,-2.22 0,-1.22 0.99,-2.22 2.22,-2.22 1.22,0 2.22,1 2.22,2.22z"/>
  <path class="fil4" d="M407.03 1002.41c0,1.23 -1,2.22 -2.23,2.22 -1.22,0 -2.22,-1 -2.22,-2.22 0,-1.22 0.99,-2.22 2.22,-2.22 1.23,0 2.23,1 2.23,2.22z"/>
  <path class="fil4" d="M420.11 1002.41c0,1.23 -1,2.22 -2.23,2.22 -1.22,0 -2.22,-1 -2.22,-2.22 0,-1.22 0.99,-2.22 2.22,-2.22 1.23,0 2.23,1 2.23,2.22z"/>
  <path class="fil4" d="M432.61 1002.41c0,1.23 -0.99,2.22 -2.22,2.22 -1.23,0 -2.22,-1 -2.22,-2.22 0,-1.22 0.99,-2.22 2.22,-2.22 1.23,0 2.22,1 2.22,2.22z"/>
  <path class="fil4" d="M445.12 1002.41c0,1.23 -1,2.22 -2.22,2.22 -1.23,0 -2.22,-1 -2.22,-2.22 0,-1.22 1,-2.22 2.22,-2.22 1.23,0 2.22,1 2.22,2.22z"/>
  <path class="fil4" d="M389.68 1014.45c0,1.23 -1,2.22 -2.22,2.22 -1.23,0 -2.22,-1 -2.22,-2.22 0,-1.23 1,-2.22 2.22,-2.22 1.23,0 2.22,1 2.22,2.22z"/>
  <path class="fil4" d="M402.18 1014.45c0,1.23 -1,2.22 -2.22,2.22 -1.23,0 -2.22,-1 -2.22,-2.22 0,-1.23 0.99,-2.22 2.22,-2.22 1.22,0 2.22,1 2.22,2.22z"/>
  <path class="fil4" d="M414.68 1014.45c0,1.23 -1,2.22 -2.22,2.22 -1.23,0 -2.22,-1 -2.22,-2.22 0,-1.23 1,-2.22 2.22,-2.22 1.22,0 2.22,1 2.22,2.22z"/>
  <path class="fil4" d="M427.76 1014.45c0,1.23 -1,2.22 -2.22,2.22 -1.23,0 -2.22,-1 -2.22,-2.22 0,-1.23 1,-2.22 2.22,-2.22 1.23,0 2.22,1 2.22,2.22z"/>
  <path class="fil4" d="M440.26 1014.45c0,1.23 -1,2.22 -2.22,2.22 -1.23,0 -2.23,-1 -2.23,-2.22 0,-1.23 1,-2.22 2.23,-2.22 1.22,0 2.22,1 2.22,2.22z"/>
  <path class="fil4" d="M383.14 1027.25c0,1.23 -1,2.22 -2.22,2.22 -1.23,0 -2.22,-1 -2.22,-2.22 0,-1.23 0.99,-2.22 2.22,-2.22 1.22,0 2.22,1 2.22,2.22z"/>
  <path class="fil4" d="M395.64 1027.25c0,1.23 -0.99,2.22 -2.22,2.22 -1.23,0 -2.22,-1 -2.22,-2.22 0,-1.23 0.99,-2.22 2.22,-2.22 1.23,0 2.22,1 2.22,2.22z"/>
  <path class="fil4" d="M408.14 1027.25c0,1.23 -1,2.22 -2.23,2.22 -1.22,0 -2.22,-1 -2.22,-2.22 0,-1.23 1,-2.22 2.22,-2.22 1.23,0 2.23,1 2.23,2.22z"/>
  <path class="fil4" d="M421.22 1027.25c0,1.23 -1,2.22 -2.22,2.22 -1.23,0 -2.22,-1 -2.22,-2.22 0,-1.23 0.99,-2.22 2.22,-2.22 1.22,0 2.22,1 2.22,2.22z"/>
  <path class="fil4" d="M364.09 1038.67c0,1.23 -0.99,2.22 -2.22,2.22 -1.23,0 -2.22,-1 -2.22,-2.22 0,-1.22 1,-2.22 2.22,-2.22 1.23,0 2.22,1 2.22,2.22z"/>
  <path class="fil4" d="M376.59 1038.67c0,1.23 -0.99,2.22 -2.22,2.22 -1.23,0 -2.22,-1 -2.22,-2.22 0,-1.22 0.99,-2.22 2.22,-2.22 1.23,0 2.22,1 2.22,2.22z"/>
  <path class="fil4" d="M357.01 1051.34c0,1.22 -1,2.22 -2.22,2.22 -1.23,0 -2.22,-1 -2.22,-2.22 0,-1.23 0.99,-2.23 2.22,-2.23 1.23,0 2.22,1 2.22,2.23z"/>
  <path class="fil4" d="M369.52 1051.34c0,1.22 -1,2.22 -2.22,2.22 -1.23,0 -2.22,-1 -2.22,-2.22 0,-1.23 1,-2.23 2.22,-2.23 1.23,0 2.22,1 2.22,2.23z"/>
  <path class="fil4" d="M382.02 1051.34c0,1.22 -0.99,2.22 -2.22,2.22 -1.23,0 -2.23,-1 -2.23,-2.22 0,-1.23 1,-2.23 2.23,-2.23 1.22,0 2.22,1 2.22,2.23z"/>
  <path class="fil4" d="M362.98 1063.51c0,1.23 -1,2.22 -2.22,2.22 -1.23,0 -2.22,-0.99 -2.22,-2.22 0,-1.23 0.99,-2.22 2.22,-2.22 1.22,0 2.22,1 2.22,2.22z"/>
  <path class="fil4" d="M390.67 1038.67c0,1.23 -0.99,2.22 -2.22,2.22 -1.23,0 -2.22,-1 -2.22,-2.22 0,-1.22 0.99,-2.22 2.22,-2.22 1.23,0 2.22,1 2.22,2.22z"/>
  <path class="fil4" d="M403.17 1038.67c0,1.23 -0.99,2.22 -2.22,2.22 -1.23,0 -2.22,-1 -2.22,-2.22 0,-1.22 1,-2.22 2.22,-2.22 1.23,0 2.22,1 2.22,2.22z"/>
  <path class="fil4" d="M465.73 916.47c0,1.23 -0.99,2.22 -2.22,2.22 -1.23,0 -2.22,-0.99 -2.22,-2.22 0,-1.22 0.99,-2.22 2.22,-2.22 1.23,0 2.22,0.99 2.22,2.22z"/>
  <path class="fil4" d="M478.24 916.47c0,1.23 -0.99,2.22 -2.22,2.22 -1.23,0 -2.22,-0.99 -2.22,-2.22 0,-1.22 0.99,-2.22 2.22,-2.22 1.23,0 2.22,0.99 2.22,2.22z"/>
  <path class="fil4" d="M490.74 916.47c0,1.23 -1,2.22 -2.22,2.22 -1.22,0 -2.22,-0.99 -2.22,-2.22 0,-1.22 1,-2.22 2.22,-2.22 1.23,0 2.22,0.99 2.22,2.22z"/>
  <path class="fil4" d="M503.82 916.47c0,1.23 -0.99,2.22 -2.22,2.22 -1.23,0 -2.22,-0.99 -2.22,-2.22 0,-1.22 1,-2.22 2.22,-2.22 1.23,0 2.22,0.99 2.22,2.22z"/>
  <path class="fil4" d="M516.32 916.47c0,1.23 -0.99,2.22 -2.22,2.22 -1.23,0 -2.22,-0.99 -2.22,-2.22 0,-1.22 0.99,-2.22 2.22,-2.22 1.23,0 2.22,0.99 2.22,2.22z"/>
  <path class="fil4" d="M528.82 916.47c0,1.23 -1,2.22 -2.22,2.22 -1.23,0 -2.22,-0.99 -2.22,-2.22 0,-1.22 1,-2.22 2.22,-2.22 1.22,0 2.22,0.99 2.22,2.22z"/>
  <path class="fil4" d="M471.16 929.13c0,1.23 -0.99,2.22 -2.22,2.22 -1.23,0 -2.22,-0.99 -2.22,-2.22 0,-1.22 1,-2.22 2.22,-2.22 1.23,0 2.22,1 2.22,2.22z"/>
  <path class="fil4" d="M483.67 929.13c0,1.23 -1,2.22 -2.22,2.22 -1.23,0 -2.22,-0.99 -2.22,-2.22 0,-1.22 1,-2.22 2.22,-2.22 1.22,0 2.22,1 2.22,2.22z"/>
  <path class="fil4" d="M496.17 929.13c0,1.23 -1,2.22 -2.22,2.22 -1.22,0 -2.22,-0.99 -2.22,-2.22 0,-1.22 1,-2.22 2.22,-2.22 1.23,0 2.22,1 2.22,2.22z"/>
  <path class="fil4" d="M509.25 929.13c0,1.23 -1,2.22 -2.22,2.22 -1.22,0 -2.22,-0.99 -2.22,-2.22 0,-1.22 1,-2.22 2.22,-2.22 1.23,0 2.22,1 2.22,2.22z"/>
  <path class="fil4" d="M521.75 929.13c0,1.23 -0.99,2.22 -2.22,2.22 -1.22,0 -2.22,-0.99 -2.22,-2.22 0,-1.22 1,-2.22 2.22,-2.22 1.23,0 2.22,1 2.22,2.22z"/>
  <path class="fil4" d="M534.25 929.13c0,1.23 -1,2.22 -2.22,2.22 -1.23,0 -2.22,-0.99 -2.22,-2.22 0,-1.22 1,-2.22 2.22,-2.22 1.22,0 2.22,1 2.22,2.22z"/>
  <path class="fil4" d="M464.62 941.31c0,1.23 -1,2.22 -2.22,2.22 -1.23,0 -2.22,-0.99 -2.22,-2.22 0,-1.23 1,-2.22 2.22,-2.22 1.22,0 2.22,1 2.22,2.22z"/>
  <path class="fil4" d="M477.13 941.31c0,1.23 -1,2.22 -2.22,2.22 -1.23,0 -2.22,-0.99 -2.22,-2.22 0,-1.23 0.99,-2.22 2.22,-2.22 1.23,0 2.22,1 2.22,2.22z"/>
  <path class="fil4" d="M489.63 941.31c0,1.23 -1,2.22 -2.22,2.22 -1.23,0 -2.22,-0.99 -2.22,-2.22 0,-1.23 1,-2.22 2.22,-2.22 1.22,0 2.22,1 2.22,2.22z"/>
  <path class="fil4" d="M502.71 941.31c0,1.23 -1,2.22 -2.22,2.22 -1.23,0 -2.22,-0.99 -2.22,-2.22 0,-1.23 1,-2.22 2.22,-2.22 1.22,0 2.22,1 2.22,2.22z"/>
  <path class="fil4" d="M515.21 941.31c0,1.23 -1,2.22 -2.22,2.22 -1.22,0 -2.22,-0.99 -2.22,-2.22 0,-1.23 1,-2.22 2.22,-2.22 1.23,0 2.22,1 2.22,2.22z"/>
  <path class="fil4" d="M527.72 941.31c0,1.23 -1,2.22 -2.23,2.22 -1.22,0 -2.22,-0.99 -2.22,-2.22 0,-1.23 0.99,-2.22 2.22,-2.22 1.23,0 2.23,1 2.23,2.22z"/>
  <path class="fil4" d="M472.27 953.35c0,1.23 -1,2.22 -2.22,2.22 -1.23,0 -2.22,-0.99 -2.22,-2.22 0,-1.23 0.99,-2.22 2.22,-2.22 1.23,0 2.22,0.99 2.22,2.22z"/>
  <path class="fil4" d="M484.78 953.35c0,1.23 -0.99,2.22 -2.22,2.22 -1.22,0 -2.22,-0.99 -2.22,-2.22 0,-1.23 1,-2.22 2.22,-2.22 1.23,0 2.22,0.99 2.22,2.22z"/>
  <path class="fil4" d="M497.28 953.35c0,1.23 -0.99,2.22 -2.22,2.22 -1.23,0 -2.22,-0.99 -2.22,-2.22 0,-1.23 0.99,-2.22 2.22,-2.22 1.23,0 2.22,0.99 2.22,2.22z"/>
  <path class="fil4" d="M510.36 953.35c0,1.23 -1,2.22 -2.23,2.22 -1.22,0 -2.22,-0.99 -2.22,-2.22 0,-1.23 0.99,-2.22 2.22,-2.22 1.23,0 2.23,0.99 2.23,2.22z"/>
  <path class="fil4" d="M522.86 953.35c0,1.23 -1,2.22 -2.22,2.22 -1.23,0 -2.22,-0.99 -2.22,-2.22 0,-1.23 0.99,-2.22 2.22,-2.22 1.22,0 2.22,0.99 2.22,2.22z"/>
  <path class="fil4" d="M535.36 953.35c0,1.23 -0.99,2.22 -2.22,2.22 -1.23,0 -2.22,-0.99 -2.22,-2.22 0,-1.23 0.99,-2.22 2.22,-2.22 1.23,0 2.22,0.99 2.22,2.22z"/>
  <path class="fil4" d="M465.73 966.15c0,1.22 -0.99,2.22 -2.22,2.22 -1.23,0 -2.22,-0.99 -2.22,-2.22 0,-1.23 0.99,-2.22 2.22,-2.22 1.23,0 2.22,0.99 2.22,2.22z"/>
  <path class="fil4" d="M478.24 966.15c0,1.22 -0.99,2.22 -2.22,2.22 -1.23,0 -2.22,-0.99 -2.22,-2.22 0,-1.23 0.99,-2.22 2.22,-2.22 1.23,0 2.22,0.99 2.22,2.22z"/>
  <path class="fil4" d="M490.74 966.15c0,1.22 -1,2.22 -2.22,2.22 -1.22,0 -2.22,-0.99 -2.22,-2.22 0,-1.23 1,-2.22 2.22,-2.22 1.23,0 2.22,0.99 2.22,2.22z"/>
  <path class="fil4" d="M503.82 966.15c0,1.22 -0.99,2.22 -2.22,2.22 -1.23,0 -2.22,-0.99 -2.22,-2.22 0,-1.23 1,-2.22 2.22,-2.22 1.23,0 2.22,0.99 2.22,2.22z"/>
  <path class="fil4" d="M516.32 966.15c0,1.22 -0.99,2.22 -2.22,2.22 -1.23,0 -2.22,-0.99 -2.22,-2.22 0,-1.23 0.99,-2.22 2.22,-2.22 1.23,0 2.22,0.99 2.22,2.22z"/>
  <path class="fil4" d="M528.82 966.15c0,1.22 -1,2.22 -2.22,2.22 -1.23,0 -2.22,-0.99 -2.22,-2.22 0,-1.23 1,-2.22 2.22,-2.22 1.22,0 2.22,0.99 2.22,2.22z"/>
  <path class="fil4" d="M542.9 916.47c0,1.23 -0.99,2.22 -2.22,2.22 -1.23,0 -2.22,-0.99 -2.22,-2.22 0,-1.22 0.99,-2.22 2.22,-2.22 1.23,0 2.22,0.99 2.22,2.22z"/>
  <path class="fil4" d="M541.79 941.31c0,1.23 -0.99,2.22 -2.22,2.22 -1.23,0 -2.22,-0.99 -2.22,-2.22 0,-1.23 1,-2.22 2.22,-2.22 1.23,0 2.22,1 2.22,2.22z"/>
  <path class="fil4" d="M461.41 977.57c0,1.23 -1,2.22 -2.22,2.22 -1.23,0 -2.22,-0.99 -2.22,-2.22 0,-1.23 0.99,-2.22 2.22,-2.22 1.22,0 2.22,0.99 2.22,2.22z"/>
  <path class="fil4" d="M473.91 977.57c0,1.23 -1,2.22 -2.22,2.22 -1.22,0 -2.22,-0.99 -2.22,-2.22 0,-1.23 1,-2.22 2.22,-2.22 1.23,0 2.22,0.99 2.22,2.22z"/>
  <path class="fil4" d="M486.41 977.57c0,1.23 -1,2.22 -2.22,2.22 -1.23,0 -2.22,-0.99 -2.22,-2.22 0,-1.23 1,-2.22 2.22,-2.22 1.22,0 2.22,0.99 2.22,2.22z"/>
  <path class="fil4" d="M499.49 977.57c0,1.23 -0.99,2.22 -2.22,2.22 -1.23,0 -2.22,-0.99 -2.22,-2.22 0,-1.23 0.99,-2.22 2.22,-2.22 1.23,0 2.22,0.99 2.22,2.22z"/>
  <path class="fil4" d="M512 977.57c0,1.23 -1,2.22 -2.22,2.22 -1.23,0 -2.23,-0.99 -2.23,-2.22 0,-1.23 1,-2.22 2.23,-2.22 1.22,0 2.22,0.99 2.22,2.22z"/>
  <path class="fil4" d="M466.84 990.24c0,1.22 -1,2.22 -2.22,2.22 -1.23,0 -2.22,-1 -2.22,-2.22 0,-1.23 1,-2.22 2.22,-2.22 1.22,0 2.22,1 2.22,2.22z"/>
  <path class="fil4" d="M479.34 990.24c0,1.22 -0.99,2.22 -2.22,2.22 -1.22,0 -2.22,-1 -2.22,-2.22 0,-1.23 1,-2.22 2.22,-2.22 1.23,0 2.22,1 2.22,2.22z"/>
  <path class="fil4" d="M491.85 990.24c0,1.22 -1,2.22 -2.22,2.22 -1.23,0 -2.22,-1 -2.22,-2.22 0,-1.23 1,-2.22 2.22,-2.22 1.23,0 2.22,1 2.22,2.22z"/>
  <path class="fil4" d="M460.3 1002.41c0,1.23 -0.99,2.22 -2.22,2.22 -1.23,0 -2.22,-1 -2.22,-2.22 0,-1.22 1,-2.22 2.22,-2.22 1.23,0 2.22,1 2.22,2.22z"/>
  <path class="fil4" d="M472.8 1002.41c0,1.23 -0.99,2.22 -2.22,2.22 -1.23,0 -2.22,-1 -2.22,-2.22 0,-1.22 1,-2.22 2.22,-2.22 1.23,0 2.22,1 2.22,2.22z"/>
  <polygon class="fil5" points="601.93,641.32 662.95,606.09 662.95,465.15 601.93,500.39 540.9,535.63 540.9,676.56 "/>
  <polygon class="fil1" points="785.01,606.09 785.01,535.63 723.98,500.39 662.95,465.15 662.95,606.09 723.98,641.32 785.01,676.56 "/>
  <polygon class="fil6" points="1029.65,745.86 1029.65,675.4 968.63,640.16 907.6,604.93 907.6,745.86 968.63,781.1 1029.65,816.33 "/>
  <polygon class="fil2" points="785.01,745.86 785.01,675.4 723.98,640.16 662.95,604.93 662.95,745.86 723.98,781.1 785.01,816.33 "/>
  <polygon class="fil1" points="846.04,640.16 785.01,675.4 785.01,816.33 846.04,781.1 907.06,745.86 907.06,604.93 "/>
  <path class="fil4" d="M907.06 729.58l0 -12.65c-1.26,1.8 -2,3.98 -2,6.33 0,2.35 0.75,4.53 2,6.33z"/>
  <path class="fil4" d="M830.18 693.63c-3.05,0 -5.53,-2.48 -5.53,-5.52 0,-3.05 2.48,-5.53 5.53,-5.53 3.05,0 5.52,2.48 5.52,5.53 0,3.05 -2.48,5.52 -5.52,5.52zm0 -16.57c-6.09,0 -11.05,4.96 -11.05,11.05 0,6.09 4.95,11.05 11.05,11.05 6.09,0 11.05,-4.95 11.05,-11.05 0,-6.09 -4.95,-11.05 -11.05,-11.05z"/>
  <path class="fil4" d="M604.72 716.53l0 2.23 3.98 -2.3c-0.57,-0.09 -1.17,-0.16 -1.77,-0.16 -0.76,0 -1.5,0.08 -2.21,0.22z"/>
  <path class="fil4" d="M907.06 694.43l0 -12.65c-1.26,1.79 -2,3.97 -2,6.33 0,2.35 0.75,4.53 2,6.33z"/>
  <path class="fil4" d="M907.06 660.41l0 -12.65c-1.26,1.79 -2,3.97 -2,6.33 0,2.35 0.75,4.53 2,6.33z"/>
  <path class="fil4" d="M873.14 693.63c-3.05,0 -5.53,-2.48 -5.53,-5.52 0,-3.05 2.48,-5.53 5.53,-5.53 3.05,0 5.52,2.48 5.52,5.53 0,3.05 -2.48,5.52 -5.52,5.52zm0 -16.57c-6.09,0 -11.05,4.96 -11.05,11.05 0,6.09 4.95,11.05 11.05,11.05 6.09,0 11.05,-4.95 11.05,-11.05 0,-6.09 -4.95,-11.05 -11.05,-11.05z"/>
  <path class="fil4" d="M873.14 761.28c-3.05,0 -5.53,-2.47 -5.53,-5.52 0,-3.05 2.48,-5.53 5.53,-5.53 3.05,0 5.52,2.48 5.52,5.53 0,3.05 -2.48,5.52 -5.52,5.52zm0 -16.57c-6.09,0 -11.05,4.96 -11.05,11.05 0,5.4 3.9,9.9 9.03,10.85l12.42 -7.17c0.41,-1.15 0.64,-2.39 0.64,-3.68 0,-6.09 -4.95,-11.05 -11.05,-11.05z"/>
  <path class="fil4" d="M907.06 625.27l0 -12.65c-1.26,1.79 -2,3.97 -2,6.33 0,2.35 0.75,4.53 2,6.33z"/>
  <path class="fil4" d="M884.19 618.94c0,-0.26 -0.02,-0.52 -0.04,-0.78l-6.3 3.64c-0.95,1.56 -2.65,2.62 -4.6,2.66l-6.29 3.63c1.77,1.2 3.9,1.9 6.19,1.9 6.09,0 11.05,-4.96 11.05,-11.05z"/>
  <path class="fil4" d="M830.18 728.77c-3.05,0 -5.53,-2.48 -5.53,-5.52 0,-3.05 2.48,-5.52 5.53,-5.52 3.05,0 5.52,2.48 5.52,5.52 0,3.05 -2.48,5.52 -5.52,5.52zm0 -16.57c-6.09,0 -11.05,4.95 -11.05,11.05 0,6.09 4.95,11.05 11.05,11.05 6.09,0 11.05,-4.95 11.05,-11.05 0,-6.09 -4.95,-11.05 -11.05,-11.05z"/>
  <path class="fil4" d="M830.18 761.28c-3.05,0 -5.53,-2.47 -5.53,-5.52 0,-3.05 2.48,-5.53 5.53,-5.53 3.05,0 5.52,2.48 5.52,5.53 0,3.05 -2.48,5.52 -5.52,5.52zm0 -16.57c-6.09,0 -11.05,4.96 -11.05,11.05 0,6.09 4.95,11.05 11.05,11.05 6.09,0 11.05,-4.96 11.05,-11.05 0,-6.09 -4.95,-11.05 -11.05,-11.05z"/>
  <path class="fil4" d="M787.22 744.71c-0.76,0 -1.5,0.08 -2.21,0.23l0 5.77c0.68,-0.3 1.43,-0.47 2.21,-0.47 3.04,0 5.52,2.48 5.52,5.53 0,3.05 -2.48,5.52 -5.52,5.52 -0.79,0 -1.54,-0.17 -2.21,-0.46l0 5.77c0.72,0.14 1.45,0.22 2.21,0.22 6.09,0 11.05,-4.96 11.05,-11.05 0,-6.09 -4.95,-11.05 -11.05,-11.05z"/>
  <path class="fil4" d="M873.14 659.61c-3.05,0 -5.53,-2.48 -5.53,-5.52 0,-3.05 2.48,-5.52 5.53,-5.52 3.05,0 5.52,2.48 5.52,5.52 0,3.05 -2.48,5.52 -5.52,5.52zm0 -16.57c-6.09,0 -11.05,4.96 -11.05,11.05 0,6.09 4.95,11.05 11.05,11.05 6.09,0 11.05,-4.96 11.05,-11.05 0,-6.09 -4.95,-11.05 -11.05,-11.05z"/>
  <path class="fil4" d="M787.22 712.2c-0.76,0 -1.5,0.08 -2.21,0.22l0 5.77c0.68,-0.3 1.43,-0.47 2.21,-0.47 3.04,0 5.52,2.48 5.52,5.52 0,3.05 -2.48,5.52 -5.52,5.52 -0.79,0 -1.54,-0.17 -2.21,-0.47l0 5.77c0.72,0.15 1.45,0.22 2.21,0.22 6.09,0 11.05,-4.95 11.05,-11.05 0,-6.09 -4.95,-11.05 -11.05,-11.05z"/>
  <path class="fil4" d="M873.14 728.77c-3.05,0 -5.53,-2.48 -5.53,-5.52 0,-3.05 2.48,-5.52 5.53,-5.52 3.05,0 5.52,2.48 5.52,5.52 0,3.05 -2.48,5.52 -5.52,5.52zm0 -16.57c-6.09,0 -11.05,4.95 -11.05,11.05 0,6.09 4.95,11.05 11.05,11.05 6.09,0 11.05,-4.95 11.05,-11.05 0,-6.09 -4.95,-11.05 -11.05,-11.05z"/>
  <path class="fil4" d="M835.7 654.09c0,3.05 -2.48,5.52 -5.52,5.52 -3.05,0 -5.53,-2.48 -5.53,-5.52 0,-0.62 0.12,-1.2 0.32,-1.76l-5.72 3.3c0.75,5.37 5.36,9.51 10.93,9.51 6.09,0 11.05,-4.96 11.05,-11.05 0,-3.53 -1.67,-6.67 -4.26,-8.7l-5.68 3.29c2.51,0.51 4.41,2.74 4.41,5.41z"/>
  <path class="fil4" d="M787.22 677.06c-0.76,0 -1.5,0.08 -2.21,0.22l0 5.77c0.68,-0.3 1.43,-0.47 2.21,-0.47 3.04,0 5.52,2.48 5.52,5.53 0,3.05 -2.48,5.52 -5.52,5.52 -0.79,0 -1.54,-0.17 -2.21,-0.47l0 5.77c0.72,0.14 1.45,0.22 2.21,0.22 6.09,0 11.05,-4.95 11.05,-11.05 0,-6.09 -4.95,-11.05 -11.05,-11.05z"/>
  <path class="fil4" d="M1107.25 734.07l0 33.51c0,3.19 2.59,5.78 5.78,5.78 3.19,0 5.78,-2.59 5.78,-5.78l0 -33.51c0,-3.19 -2.59,-5.77 -5.78,-5.77 -3.19,0 -5.78,2.58 -5.78,5.77z"/>
  <path class="fil4" d="M1094.83 713.56l0 0c0.15,0 0.29,-0.03 0.43,-0.05l-5.12 -2.96 -0.51 -0.3c0.93,1.95 2.9,3.3 5.2,3.3z"/>
  <path class="fil4" d="M1070.85 734.07l0 33.51c0,3.19 2.59,5.78 5.78,5.78 3.19,0 5.78,-2.59 5.78,-5.78l0 -33.51c0,-3.19 -2.59,-5.77 -5.78,-5.77 -3.19,0 -5.78,2.58 -5.78,5.77z"/>
  <path class="fil4" d="M1052.66 707.79c0,3.19 2.58,5.78 5.78,5.78 3.19,0 5.78,-2.59 5.78,-5.78l0 -12.2 -11.55 -6.67 0 18.87z"/>
  <path class="fil4" d="M1040.23 773.36c3.19,0 5.77,-2.59 5.77,-5.78l0 -33.51c0,-3.19 -2.58,-5.77 -5.77,-5.77 -3.19,0 -5.78,2.58 -5.78,5.77l0 33.51c0,3.19 2.58,5.78 5.78,5.78z"/>
  <path class="fil7" d="M361.33 511.15c0,10.45 -8.46,18.91 -18.91,18.91 -10.45,0 -18.91,-8.47 -18.91,-18.91 0,-10.44 8.47,-18.91 18.91,-18.91 10.45,0 18.91,8.47 18.91,18.91z"/>
  <polygon class="fil8" points="1013.08,575.88 1037.51,575.88 1037.51,525.43 1013.08,525.43 "/>
  <polygon class="fil0" points="1095.26,464.09 1119.69,464.09 1119.69,413.64 1095.26,413.64 "/>
 </g>
</svg>
