<?xml version="1.0" encoding="UTF-8"?>
<!DOCTYPE svg PUBLIC "-//W3C//DTD SVG 1.1//EN" "http://www.w3.org/Graphics/SVG/1.1/DTD/svg11.dtd">
<!-- Creator: CorelDRAW 2018 (64-Bit Evaluation Version) -->
<svg xmlns="http://www.w3.org/2000/svg" xml:space="preserve" width="0.429969in" height="0.150583in" version="1.1" style="shape-rendering:geometricPrecision; text-rendering:geometricPrecision; image-rendering:optimizeQuality; fill-rule:evenodd; clip-rule:evenodd"
viewBox="0 0 33.45 11.71"
 xmlns:xlink="http://www.w3.org/1999/xlink">
 <defs>
  <style type="text/css">
   <![CDATA[
    .fil0 {fill:white}
    .fil1 {fill:white;fill-rule:nonzero}
   ]]>
  </style>
 </defs>
 <g id="Layer_x0020_1">
  <metadata id="CorelCorpID_0Corel-Layer"/>
  <path class="fil0" d="M7.02 0.27l0.51 -0.21c0.18,-0.08 0.37,-0.03 0.44,0.1l0.91 1.72c0.05,0.09 0.03,0.19 -0.03,0.28 -0.07,0.1 -0.17,0.17 -0.29,0.2l-0.36 0.08c-0.15,0.04 -0.28,-0 -0.35,-0.1l-1.07 -1.59c-0.05,-0.07 -0.05,-0.16 -0,-0.26 0.05,-0.1 0.13,-0.17 0.24,-0.22z"/>
 </g>
 <g id="Layer_x0020_1_0">
  <metadata id="CorelCorpID_1Corel-Layer"/>
  <path class="fil1" d="M2.95 6.86l1.39 -3.52c0.01,-0.03 0.03,-0.06 0.04,-0.08 0.02,-0.03 0.03,-0.05 0.05,-0.08 0.02,-0.02 0.04,-0.05 0.06,-0.07 0.02,-0.02 0.04,-0.04 0.06,-0.06 0.03,-0.02 0.06,-0.04 0.09,-0.05 0.03,-0.02 0.06,-0.03 0.09,-0.04 0.03,-0.01 0.06,-0.02 0.1,-0.02 0.03,-0.01 0.07,-0.01 0.1,-0.01l0.46 0 0.05 0 0.05 0.01 0.05 0.01 0.05 0.02c0.02,0.01 0.04,0.02 0.06,0.03 0.02,0.01 0.04,0.03 0.06,0.04 0.02,0.01 0.04,0.03 0.05,0.05 0.02,0.02 0.03,0.04 0.05,0.06 0.01,0.02 0.03,0.04 0.04,0.06 0.01,0.02 0.02,0.04 0.03,0.07 0.02,0.05 0.02,0.1 0.02,0.15l-0 0.05 -0.01 0.05 -0.01 0.05 -0.02 0.05 -2.5 5.6 -0.03 0.05 -0.04 0.05c-0.01,0.02 -0.03,0.03 -0.04,0.05 -0.02,0.02 -0.04,0.04 -0.06,0.05 -0.02,0.01 -0.05,0.03 -0.07,0.04 -0.02,0.01 -0.05,0.02 -0.08,0.02 -0.02,0 -0.05,0.01 -0.08,0.01l-0.01 0c-0.03,-0 -0.06,-0 -0.09,-0.01 -0.03,-0.01 -0.05,-0.01 -0.08,-0.02 -0.03,-0.01 -0.05,-0.02 -0.07,-0.04 -0.02,-0.02 -0.04,-0.03 -0.06,-0.05l-0.04 -0.05 -0.04 -0.05 -0.03 -0.05 -2.47 -5.57c-0.03,-0.05 -0.03,-0.07 -0.05,-0.13 -0.01,-0.05 -0.01,-0.09 -0.01,-0.14 0,-0.07 0.01,-0.14 0.04,-0.2 0.03,-0.06 0.07,-0.11 0.13,-0.15 0.02,-0.02 0.05,-0.03 0.08,-0.05 0.03,-0.01 0.05,-0.02 0.08,-0.03 0.03,-0.01 0.06,-0.01 0.09,-0.02 0.03,-0 0.06,-0.01 0.09,-0.01l0.46 0c0.03,0 0.06,0 0.09,0.01 0.03,0 0.06,0.01 0.09,0.02 0.03,0.01 0.06,0.02 0.09,0.03 0.03,0.01 0.06,0.03 0.08,0.05 0.02,0.02 0.05,0.04 0.07,0.06 0.02,0.02 0.04,0.04 0.06,0.07 0.02,0.02 0.04,0.05 0.05,0.08 0.02,0.03 0.03,0.05 0.04,0.08l1.39 3.53z"/>
  <path class="fil1" d="M23.56 1.2c0,-0.06 0,-0.12 0.01,-0.18l0.01 -0.18 0.02 -0.18 0.02 -0.17c0.01,-0.06 0.02,-0.12 0.05,-0.18 0.02,-0.05 0.06,-0.1 0.1,-0.14 0.04,-0.04 0.09,-0.07 0.15,-0.09 0.06,-0.02 0.12,-0.03 0.18,-0.03l0.37 0c0.07,0 0.13,0.01 0.19,0.03 0.06,0.02 0.11,0.06 0.16,0.1 0.04,0.04 0.08,0.1 0.1,0.15 0.02,0.06 0.03,0.12 0.03,0.19l0 8.33c0,0.07 -0.01,0.14 -0.04,0.2 -0.02,0.06 -0.06,0.12 -0.1,0.16 -0.05,0.05 -0.1,0.08 -0.16,0.11 -0.06,0.02 -0.13,0.04 -0.2,0.04l-0.34 0c-0.07,0 -0.14,-0.01 -0.2,-0.03 -0.06,-0.02 -0.12,-0.06 -0.16,-0.1 -0.04,-0.04 -0.08,-0.1 -0.1,-0.16 -0.02,-0.06 -0.04,-0.13 -0.04,-0.2l-0.01 -0.15c-0.07,0.07 -0.15,0.14 -0.23,0.2 -0.13,0.1 -0.26,0.18 -0.4,0.26 -0.21,0.11 -0.43,0.19 -0.66,0.24 -0.23,0.06 -0.48,0.08 -0.71,0.08 -0.44,0 -0.85,-0.09 -1.22,-0.24 -0.39,-0.16 -0.73,-0.41 -1.02,-0.7 -0.29,-0.3 -0.52,-0.67 -0.68,-1.07 -0.15,-0.39 -0.24,-0.82 -0.24,-1.27 0,-0.44 0.08,-0.87 0.24,-1.26 0.16,-0.4 0.39,-0.76 0.68,-1.07 0.29,-0.3 0.63,-0.54 1.02,-0.71 0.37,-0.16 0.78,-0.25 1.22,-0.25 0.24,0 0.48,0.03 0.71,0.09 0.23,0.06 0.46,0.14 0.66,0.25 0.13,0.07 0.26,0.15 0.38,0.25 0.07,0.05 0.14,0.11 0.2,0.18l0 -2.49zm-3.72 5.01c0,0.26 0.05,0.5 0.14,0.73 0.09,0.23 0.23,0.44 0.4,0.62 0.17,0.17 0.37,0.31 0.6,0.41 0.22,0.09 0.46,0.14 0.71,0.14 0.26,0 0.5,-0.05 0.72,-0.14 0.23,-0.1 0.44,-0.24 0.61,-0.41 0.17,-0.18 0.32,-0.39 0.41,-0.62 0.09,-0.22 0.14,-0.47 0.14,-0.73 0,-0.26 -0.05,-0.5 -0.14,-0.72 -0.09,-0.23 -0.23,-0.44 -0.41,-0.61 -0.17,-0.17 -0.38,-0.31 -0.61,-0.41 -0.22,-0.09 -0.47,-0.14 -0.72,-0.14 -0.25,0 -0.49,0.05 -0.71,0.14 -0.23,0.1 -0.43,0.24 -0.6,0.41 -0.17,0.18 -0.31,0.38 -0.41,0.62 -0.09,0.22 -0.14,0.47 -0.14,0.73z"/>
  <path class="fil1" d="M12.57 3.54c0,-0.07 0.01,-0.13 0.03,-0.19 0.02,-0.06 0.06,-0.11 0.1,-0.15 0.04,-0.04 0.1,-0.08 0.16,-0.1 0.06,-0.02 0.12,-0.03 0.19,-0.03l0.37 0c0.07,0 0.13,0.01 0.19,0.03 0.06,0.02 0.11,0.05 0.15,0.09 0.04,0.04 0.08,0.09 0.1,0.14 0.02,0.05 0.04,0.11 0.05,0.18l0 0.04c0.05,-0.05 0.1,-0.09 0.16,-0.14 0.1,-0.08 0.2,-0.14 0.31,-0.2 0.17,-0.09 0.35,-0.17 0.54,-0.22 0.18,-0.05 0.37,-0.08 0.55,-0.08 0.36,0 0.69,0.07 0.99,0.2 0.31,0.13 0.59,0.33 0.81,0.57 0.23,0.25 0.41,0.55 0.54,0.88 0.12,0.33 0.19,0.69 0.19,1.06l0 3.21c0,0.07 -0.01,0.14 -0.03,0.2 -0.02,0.06 -0.06,0.12 -0.1,0.16 -0.04,0.05 -0.1,0.08 -0.16,0.11 -0.06,0.02 -0.12,0.04 -0.2,0.04l-0.43 0c-0.08,0 -0.15,-0.01 -0.21,-0.03 -0.06,-0.02 -0.11,-0.06 -0.16,-0.11 -0.04,-0.05 -0.07,-0.1 -0.09,-0.16 -0.02,-0.06 -0.02,-0.12 -0.02,-0.2l0 -3.21c0,-0.21 -0.04,-0.4 -0.1,-0.56 -0.07,-0.17 -0.17,-0.32 -0.3,-0.43 -0.08,-0.08 -0.18,-0.14 -0.28,-0.19 -0.1,-0.05 -0.21,-0.09 -0.33,-0.12 -0.11,-0.02 -0.23,-0.03 -0.35,-0.03 -0.12,0 -0.23,0.02 -0.34,0.06 -0.17,0.05 -0.34,0.14 -0.48,0.27 -0.13,0.12 -0.25,0.27 -0.34,0.45 -0.02,0.04 -0.03,0.07 -0.05,0.11 -0.01,0.04 -0.02,0.08 -0.03,0.12 -0.01,0.04 -0.02,0.08 -0.02,0.12 -0,0.04 -0.01,0.08 -0.01,0.13l0 3.3c0,0.07 -0.01,0.13 -0.03,0.19 -0.02,0.06 -0.06,0.11 -0.1,0.15 -0.04,0.04 -0.1,0.08 -0.15,0.1 -0.06,0.02 -0.12,0.03 -0.19,0.03l-0.43 0c-0.33,0 -0.49,-0.16 -0.49,-0.47l0 -5.33z"/>
  <path class="fil1" d="M9 8.11c0.12,0 0.23,-0.01 0.34,-0.03 0.11,-0.02 0.23,-0.05 0.33,-0.09 0.11,-0.04 0.21,-0.09 0.31,-0.15 0.09,-0.06 0.18,-0.12 0.26,-0.19l0.04 -0.03c0.04,-0.03 0.08,-0.05 0.13,-0.07 0.04,-0.02 0.09,-0.03 0.14,-0.04 0.06,-0.01 0.13,-0 0.19,0.02 0.06,0.02 0.11,0.05 0.15,0.11l0 0c0.07,0.1 0.14,0.19 0.21,0.29 0.05,0.07 0.1,0.14 0.15,0.21l0 0c0.05,0.08 0.06,0.15 0.06,0.22 -0,0.07 -0.03,0.14 -0.06,0.2 -0.03,0.04 -0.06,0.08 -0.09,0.12 -0.03,0.04 -0.07,0.07 -0.1,0.09l-0.01 0.01c-0.15,0.12 -0.32,0.22 -0.48,0.31 -0.16,0.09 -0.33,0.16 -0.5,0.22 -0.17,0.06 -0.34,0.1 -0.52,0.13 -0.18,0.03 -0.36,0.05 -0.54,0.05 -0.44,0 -0.87,-0.09 -1.26,-0.25 -0.4,-0.17 -0.76,-0.41 -1.06,-0.71 -0.3,-0.3 -0.54,-0.66 -0.71,-1.06 -0.16,-0.39 -0.25,-0.81 -0.25,-1.26 0,-0.44 0.09,-0.87 0.25,-1.25 0.17,-0.4 0.41,-0.76 0.71,-1.07 0.3,-0.3 0.66,-0.55 1.06,-0.71 0.39,-0.16 0.81,-0.25 1.25,-0.25 0.43,0 0.84,0.08 1.21,0.23 0.38,0.15 0.72,0.38 1.01,0.66 0.28,0.28 0.51,0.62 0.66,1 0.15,0.37 0.23,0.77 0.23,1.21l-0 0.05c0,0.25 0,0.51 -0.3,0.66 -0.05,0.02 -0.09,0.04 -0.14,0.05 -0.05,0.01 -0.1,0.02 -0.15,0.03 -0.04,0 -0.09,0.01 -0.13,0.01l-0.12 0 -4.06 0c0.05,0.15 0.12,0.29 0.21,0.42 0.11,0.16 0.23,0.3 0.38,0.42 0.17,0.14 0.36,0.25 0.56,0.32 0.2,0.07 0.41,0.11 0.64,0.11zm1.69 -2.53c-0.04,-0.15 -0.1,-0.29 -0.18,-0.42 -0.09,-0.16 -0.21,-0.3 -0.35,-0.42 -0.16,-0.14 -0.34,-0.25 -0.54,-0.32 -0.2,-0.07 -0.41,-0.11 -0.62,-0.11 -0.22,0 -0.43,0.04 -0.63,0.11 -0.21,0.07 -0.4,0.18 -0.56,0.32 -0.15,0.12 -0.27,0.26 -0.38,0.42 -0.09,0.13 -0.16,0.27 -0.21,0.41l3.47 0z"/>
  <path class="fil1" d="M25.6 0.51c0,-0.04 0,-0.07 0.01,-0.1 0.01,-0.03 0.02,-0.07 0.03,-0.1 0.01,-0.03 0.03,-0.06 0.05,-0.09 0.02,-0.03 0.04,-0.05 0.06,-0.08 0.02,-0.02 0.05,-0.04 0.08,-0.06 0.03,-0.02 0.06,-0.03 0.09,-0.04 0.03,-0.01 0.06,-0.02 0.1,-0.03 0.03,-0.01 0.07,-0.01 0.1,-0.01l0.37 0c0.04,0 0.07,0 0.1,0.01 0.03,0.01 0.07,0.01 0.1,0.02 0.03,0.01 0.06,0.03 0.09,0.04 0.03,0.02 0.05,0.04 0.08,0.06 0.02,0.02 0.04,0.05 0.06,0.07 0.02,0.03 0.03,0.05 0.05,0.08 0.01,0.03 0.02,0.06 0.03,0.09 0.01,0.03 0.01,0.06 0.02,0.1 0.02,0.18 0.04,0.35 0.06,0.54l0 0.1 0 0.09 0 3.33c0.04,0.59 0.2,1.04 0.32,1.36l0 0.01c0.06,0.17 0.11,0.31 0.13,0.44 0.01,0.07 0.02,0.14 0.01,0.2 -0.01,0.06 -0.03,0.13 -0.06,0.18l-0.02 0.03c-0.01,0.02 -0.02,0.03 -0.02,0.05 -0.01,0.02 -0.02,0.03 -0.03,0.05 -0.01,0.02 -0.03,0.03 -0.05,0.05 -0.02,0.01 -0.04,0.03 -0.07,0.04l-0.05 0.02 -0.16 0.05c-0.1,0.03 -0.21,0.07 -0.3,0.07 -0.09,0 -0.17,-0.02 -0.25,-0.06 -0.08,-0.04 -0.16,-0.09 -0.23,-0.16 -0.07,-0.07 -0.14,-0.15 -0.2,-0.24 -0.06,-0.09 -0.12,-0.2 -0.17,-0.32 -0.05,-0.11 -0.09,-0.23 -0.13,-0.36 -0.04,-0.13 -0.07,-0.27 -0.1,-0.41 -0.03,-0.14 -0.05,-0.29 -0.06,-0.45 -0.01,-0.15 -0.02,-0.31 -0.03,-0.47l-0.01 -4.1z"/>
  <path class="fil1" d="M30.59 6.72l1.36 -3.3c0.01,-0.03 0.02,-0.06 0.04,-0.08 0.01,-0.03 0.03,-0.05 0.04,-0.07 0.02,-0.02 0.04,-0.05 0.06,-0.07 0.02,-0.02 0.04,-0.04 0.06,-0.06 0.02,-0.02 0.05,-0.04 0.08,-0.05 0.03,-0.02 0.06,-0.03 0.09,-0.04 0.03,-0.01 0.06,-0.02 0.1,-0.02 0.03,-0.01 0.07,-0.01 0.1,-0.01l0.44 0 0.05 0 0.05 0.01c0.02,0 0.03,0.01 0.05,0.01l0.05 0.02c0.02,0.01 0.04,0.02 0.06,0.03 0.02,0.01 0.04,0.03 0.06,0.04 0.02,0.01 0.03,0.03 0.05,0.05 0.02,0.02 0.03,0.04 0.04,0.06 0.01,0.02 0.02,0.04 0.03,0.06 0.01,0.02 0.02,0.04 0.03,0.07 0.01,0.02 0.01,0.05 0.02,0.07 0,0.02 0.01,0.05 0.01,0.07 0,0.03 -0,0.06 -0.01,0.1l-0.01 0.05 -0.02 0.05 -3.24 7.69c-0.01,0.03 -0.02,0.05 -0.04,0.08 -0.02,0.02 -0.03,0.05 -0.05,0.07 -0.02,0.02 -0.04,0.04 -0.06,0.06 -0.02,0.02 -0.05,0.04 -0.07,0.05 -0.02,0.01 -0.05,0.03 -0.07,0.04 -0.03,0.01 -0.05,0.02 -0.08,0.03 -0.03,0.01 -0.06,0.01 -0.08,0.02 -0.03,0 -0.06,0.01 -0.08,0.01l-0.33 0c-0.02,0 -0.05,-0 -0.07,-0 -0.02,-0 -0.04,-0 -0.07,-0.01 -0.02,-0 -0.04,-0.01 -0.06,-0.01 -0.02,-0.01 -0.04,-0.01 -0.06,-0.02 -0.02,-0.01 -0.04,-0.02 -0.06,-0.03 -0.02,-0.01 -0.03,-0.02 -0.05,-0.03 -0.02,-0.01 -0.03,-0.03 -0.05,-0.04 -0.01,-0.01 -0.03,-0.03 -0.04,-0.05 -0.01,-0.02 -0.02,-0.04 -0.03,-0.05 -0.01,-0.02 -0.02,-0.04 -0.02,-0.06 -0.01,-0.02 -0.01,-0.04 -0.01,-0.06 -0,-0.02 -0,-0.04 -0,-0.06 0,-0.02 0,-0.04 0,-0.06 0,-0.02 0.01,-0.04 0.01,-0.06l0.02 -0.06c0.01,-0.02 0.01,-0.04 0.02,-0.06l1.02 -2.47 -2.04 -4.87c-0.02,-0.03 -0.02,-0.05 -0.03,-0.08 -0.01,-0.06 -0.02,-0.11 -0.02,-0.17 0,-0.14 0.04,-0.25 0.12,-0.33 0.08,-0.07 0.2,-0.11 0.36,-0.11l0.45 0c0.03,0 0.06,0 0.09,0.01 0.03,0 0.06,0.01 0.09,0.02 0.03,0.01 0.06,0.02 0.08,0.03 0.03,0.01 0.05,0.03 0.08,0.05 0.02,0.02 0.05,0.04 0.07,0.06 0.02,0.02 0.04,0.04 0.06,0.07 0.02,0.02 0.03,0.05 0.05,0.07 0.01,0.03 0.03,0.05 0.04,0.08l1.36 3.32z"/>
  <path class="fil0" d="M26.41 7.6c0.06,0 0.12,0.01 0.17,0.02 0.06,0.01 0.11,0.03 0.16,0.05 0.05,0.02 0.1,0.05 0.15,0.08 0.05,0.03 0.09,0.07 0.13,0.11 0.04,0.04 0.08,0.08 0.11,0.13 0.03,0.05 0.06,0.1 0.08,0.15l0 0c0.02,0.05 0.04,0.11 0.05,0.16 0.01,0.05 0.02,0.11 0.02,0.17 0,0.06 -0.01,0.11 -0.02,0.17 -0.01,0.06 -0.03,0.11 -0.05,0.16l-0 0c-0.02,0.05 -0.05,0.11 -0.08,0.15 -0.03,0.05 -0.07,0.09 -0.11,0.13 -0.04,0.04 -0.08,0.08 -0.13,0.11 -0.05,0.03 -0.1,0.06 -0.15,0.08l-0 0c-0.05,0.02 -0.11,0.04 -0.16,0.05 -0.05,0.01 -0.11,0.02 -0.17,0.02 -0.06,0 -0.11,-0.01 -0.17,-0.02 -0.06,-0.01 -0.11,-0.03 -0.16,-0.05 -0.05,-0.02 -0.1,-0.05 -0.15,-0.08 -0.05,-0.03 -0.09,-0.07 -0.13,-0.11 -0.04,-0.04 -0.08,-0.08 -0.11,-0.13 -0.03,-0.05 -0.06,-0.1 -0.08,-0.15l-0 -0c-0.02,-0.05 -0.04,-0.11 -0.05,-0.16 -0.01,-0.05 -0.02,-0.11 -0.02,-0.17 0,-0.06 0.01,-0.11 0.02,-0.17 0.01,-0.06 0.03,-0.11 0.05,-0.16l0 -0c0.02,-0.05 0.05,-0.11 0.08,-0.15 0.03,-0.05 0.07,-0.09 0.11,-0.13 0.04,-0.04 0.08,-0.08 0.13,-0.11 0.05,-0.03 0.1,-0.06 0.15,-0.08 0.05,-0.02 0.11,-0.04 0.16,-0.05 0.06,-0.01 0.11,-0.02 0.17,-0.02z"/>
 </g>
</svg>
