<?xml version="1.0" encoding="UTF-8"?>
<!DOCTYPE svg PUBLIC "-//W3C//DTD SVG 1.1//EN" "http://www.w3.org/Graphics/SVG/1.1/DTD/svg11.dtd">
<!-- Creator: CorelDRAW 2018 (64-Bit Evaluation Version) -->
<svg xmlns="http://www.w3.org/2000/svg" xml:space="preserve" width="0.58815in" height="0.20598in" version="1.1" style="shape-rendering:geometricPrecision; text-rendering:geometricPrecision; image-rendering:optimizeQuality; fill-rule:evenodd; clip-rule:evenodd"
viewBox="0 0 62.58 21.92"
 xmlns:xlink="http://www.w3.org/1999/xlink">
 <defs>
  <style type="text/css">
   <![CDATA[
    .fil3 {fill:#E0FAF8}
    .fil0 {fill:white}
    .fil2 {fill:#E0FAF8;fill-rule:nonzero}
    .fil1 {fill:white;fill-rule:nonzero}
   ]]>
  </style>
 </defs>
 <g id="Layer_x0020_1">
  <metadata id="CorelCorpID_0Corel-Layer"/>
  <path class="fil0" d="M13.14 0.5l0.96 -0.4c0.34,-0.14 0.69,-0.07 0.82,0.18l1.71 3.21c0.09,0.16 0.06,0.35 -0.06,0.53 -0.12,0.18 -0.32,0.31 -0.55,0.37l-0.67 0.16c-0.28,0.07 -0.53,-0.01 -0.65,-0.19l-2 -2.97c-0.09,-0.14 -0.1,-0.31 -0.01,-0.48 0.09,-0.18 0.24,-0.32 0.45,-0.4z"/>
 </g>
 <g id="Layer_x0020_1_0">
  <metadata id="CorelCorpID_1Corel-Layer"/>
  <path class="fil1" d="M5.52 12.83l2.6 -6.59c0.02,-0.05 0.05,-0.11 0.08,-0.16 0.03,-0.05 0.06,-0.1 0.09,-0.14 0.03,-0.04 0.07,-0.09 0.11,-0.13 0.04,-0.04 0.08,-0.07 0.12,-0.11 0.05,-0.04 0.11,-0.07 0.16,-0.1 0.05,-0.03 0.11,-0.05 0.17,-0.07 0.06,-0.02 0.12,-0.03 0.18,-0.04 0.06,-0.01 0.13,-0.01 0.19,-0.01l0.85 0 0.1 0.01 0.09 0.01 0.1 0.02 0.09 0.03c0.04,0.02 0.08,0.04 0.12,0.06 0.04,0.02 0.08,0.05 0.11,0.08 0.04,0.03 0.07,0.06 0.1,0.09 0.03,0.03 0.06,0.07 0.09,0.11 0.03,0.04 0.05,0.08 0.07,0.12 0.02,0.04 0.04,0.08 0.05,0.13 0.03,0.09 0.04,0.18 0.04,0.28l-0.01 0.1 -0.02 0.1 -0.02 0.09 -0.04 0.09 -4.67 10.47 -0.05 0.09 -0.07 0.09c-0.02,0.03 -0.05,0.06 -0.08,0.09 -0.04,0.04 -0.08,0.07 -0.12,0.09 -0.04,0.03 -0.09,0.05 -0.14,0.07 -0.05,0.02 -0.09,0.03 -0.15,0.04 -0.05,0.01 -0.1,0.01 -0.15,0.01l-0.02 0c-0.06,-0 -0.11,-0.01 -0.17,-0.02 -0.05,-0.01 -0.1,-0.03 -0.15,-0.05 -0.05,-0.02 -0.09,-0.05 -0.13,-0.07 -0.04,-0.03 -0.08,-0.06 -0.12,-0.09l-0.08 -0.09 -0.07 -0.09 -0.05 -0.09 -4.63 -10.42c-0.05,-0.09 -0.06,-0.13 -0.09,-0.24 -0.01,-0.09 -0.02,-0.16 -0.03,-0.26 0,-0.14 0.03,-0.26 0.08,-0.38 0.05,-0.11 0.13,-0.21 0.24,-0.29 0.04,-0.03 0.09,-0.06 0.14,-0.09 0.05,-0.02 0.1,-0.04 0.16,-0.06 0.05,-0.01 0.11,-0.03 0.17,-0.03 0.06,-0.01 0.12,-0.01 0.18,-0.01l0.87 0c0.06,0 0.11,0.01 0.17,0.01 0.06,0.01 0.12,0.02 0.17,0.04 0.06,0.02 0.11,0.04 0.16,0.06 0.05,0.02 0.1,0.05 0.15,0.09 0.05,0.03 0.09,0.07 0.13,0.11 0.04,0.04 0.08,0.08 0.12,0.12 0.04,0.05 0.07,0.09 0.1,0.14 0.03,0.05 0.06,0.1 0.08,0.16l2.6 6.6z"/>
  <path class="fil1" d="M44.09 2.24c0,-0.1 0,-0.22 0.01,-0.34l0.03 -0.35 0.04 -0.34 0.04 -0.32c0.01,-0.12 0.04,-0.23 0.09,-0.33 0.05,-0.1 0.11,-0.19 0.19,-0.26 0.08,-0.08 0.18,-0.14 0.28,-0.17 0.1,-0.04 0.22,-0.06 0.35,-0.06l0.7 0c0.12,0 0.24,0.02 0.35,0.06 0.11,0.04 0.21,0.1 0.29,0.18 0.08,0.08 0.15,0.18 0.19,0.29 0.04,0.11 0.07,0.22 0.07,0.35l0 15.59c0,0.13 -0.02,0.26 -0.07,0.38 -0.04,0.12 -0.11,0.22 -0.19,0.31 -0.09,0.09 -0.19,0.16 -0.31,0.2 -0.11,0.04 -0.24,0.07 -0.37,0.07l-0.63 0c-0.14,0 -0.26,-0.02 -0.38,-0.06 -0.12,-0.04 -0.22,-0.11 -0.3,-0.19 -0.08,-0.08 -0.15,-0.18 -0.19,-0.29 -0.04,-0.11 -0.07,-0.23 -0.08,-0.37l-0.02 -0.27c-0.13,0.13 -0.28,0.26 -0.42,0.37 -0.24,0.18 -0.49,0.34 -0.75,0.48 -0.39,0.2 -0.81,0.35 -1.24,0.46 -0.44,0.11 -0.89,0.16 -1.33,0.16 -0.82,0 -1.59,-0.16 -2.28,-0.46 -0.73,-0.31 -1.37,-0.76 -1.91,-1.32 -0.54,-0.57 -0.98,-1.25 -1.27,-2 -0.29,-0.73 -0.44,-1.54 -0.44,-2.37 0,-0.83 0.16,-1.63 0.45,-2.37 0.29,-0.75 0.73,-1.43 1.28,-2 0.54,-0.56 1.18,-1.01 1.91,-1.32 0.69,-0.29 1.46,-0.46 2.28,-0.46 0.44,0 0.89,0.06 1.33,0.16 0.43,0.11 0.85,0.27 1.24,0.47 0.25,0.13 0.49,0.29 0.72,0.47 0.13,0.1 0.26,0.21 0.38,0.33l0 -4.66zm-6.96 9.38c0,0.48 0.09,0.94 0.26,1.36 0.18,0.43 0.44,0.83 0.76,1.15 0.32,0.32 0.7,0.59 1.13,0.76 0.41,0.17 0.86,0.27 1.33,0.27 0.48,0 0.93,-0.1 1.35,-0.27 0.43,-0.18 0.82,-0.45 1.14,-0.77 0.33,-0.33 0.59,-0.73 0.77,-1.16 0.17,-0.42 0.27,-0.88 0.27,-1.37 0,-0.48 -0.09,-0.94 -0.27,-1.35 -0.18,-0.43 -0.44,-0.82 -0.76,-1.14 -0.32,-0.32 -0.71,-0.59 -1.14,-0.76 -0.41,-0.17 -0.87,-0.27 -1.35,-0.27 -0.47,0 -0.92,0.1 -1.33,0.27 -0.43,0.18 -0.81,0.44 -1.13,0.76 -0.32,0.33 -0.58,0.72 -0.76,1.15 -0.17,0.42 -0.26,0.88 -0.26,1.36z"/>
  <path class="fil1" d="M23.51 6.63c0,-0.13 0.02,-0.24 0.07,-0.35 0.04,-0.11 0.11,-0.21 0.19,-0.29 0.08,-0.08 0.18,-0.14 0.29,-0.18 0.11,-0.04 0.23,-0.06 0.35,-0.06l0.7 0c0.13,0 0.24,0.02 0.35,0.06 0.11,0.04 0.2,0.1 0.28,0.18 0.08,0.08 0.14,0.17 0.19,0.27 0.04,0.1 0.07,0.21 0.09,0.34l0.01 0.07c0.09,-0.09 0.19,-0.17 0.3,-0.25 0.18,-0.14 0.38,-0.27 0.58,-0.38 0.32,-0.18 0.66,-0.31 1.01,-0.41 0.34,-0.09 0.7,-0.14 1.04,-0.14 0.67,0 1.3,0.13 1.85,0.37 0.59,0.25 1.1,0.62 1.52,1.07 0.43,0.47 0.77,1.03 1,1.64 0.23,0.61 0.35,1.28 0.35,1.97l0 6.01c0,0.13 -0.02,0.25 -0.06,0.37 -0.04,0.12 -0.11,0.22 -0.19,0.31 -0.08,0.09 -0.19,0.16 -0.3,0.21 -0.11,0.04 -0.23,0.07 -0.37,0.07l-0.8 0c-0.15,0 -0.28,-0.02 -0.4,-0.07 -0.12,-0.04 -0.22,-0.11 -0.29,-0.21 -0.08,-0.09 -0.13,-0.19 -0.16,-0.3 -0.03,-0.11 -0.05,-0.23 -0.05,-0.37l0 -6c0,-0.39 -0.07,-0.74 -0.19,-1.04 -0.13,-0.32 -0.32,-0.59 -0.56,-0.81 -0.16,-0.14 -0.33,-0.27 -0.52,-0.36 -0.19,-0.1 -0.4,-0.17 -0.62,-0.22 -0.22,-0.05 -0.44,-0.06 -0.66,-0.06 -0.22,0.01 -0.43,0.04 -0.64,0.11 -0.32,0.1 -0.63,0.27 -0.9,0.5 -0.25,0.22 -0.47,0.5 -0.63,0.85 -0.03,0.07 -0.06,0.14 -0.09,0.21 -0.02,0.07 -0.05,0.15 -0.06,0.22 -0.02,0.08 -0.03,0.16 -0.04,0.23 -0.01,0.07 -0.01,0.16 -0.01,0.24l0 6.17c0,0.13 -0.02,0.25 -0.06,0.35 -0.04,0.11 -0.11,0.21 -0.19,0.29 -0.08,0.08 -0.18,0.14 -0.29,0.18 -0.11,0.04 -0.23,0.06 -0.35,0.06l-0.8 0c-0.62,0 -0.92,-0.29 -0.92,-0.88l0 -9.98z"/>
  <path class="fil1" d="M16.84 15.17c0.22,0 0.43,-0.02 0.64,-0.06 0.21,-0.04 0.42,-0.1 0.62,-0.17 0.2,-0.07 0.39,-0.17 0.57,-0.27 0.18,-0.11 0.34,-0.23 0.49,-0.36l0.07 -0.05c0.07,-0.05 0.15,-0.1 0.24,-0.13 0.08,-0.03 0.17,-0.06 0.26,-0.07 0.12,-0.01 0.24,-0 0.35,0.04 0.1,0.04 0.2,0.1 0.28,0.2l0 0c0.14,0.18 0.26,0.36 0.39,0.55 0.09,0.13 0.18,0.27 0.28,0.4l0.01 0.01c0.09,0.14 0.12,0.28 0.12,0.41 -0.01,0.13 -0.05,0.25 -0.12,0.36 -0.05,0.08 -0.11,0.16 -0.17,0.22 -0.06,0.07 -0.13,0.12 -0.18,0.17l-0.03 0.02c-0.29,0.22 -0.59,0.41 -0.9,0.57 -0.3,0.16 -0.62,0.3 -0.94,0.41 -0.31,0.11 -0.64,0.19 -0.97,0.25 -0.33,0.06 -0.67,0.09 -1.02,0.09 -0.83,0 -1.63,-0.17 -2.35,-0.46 -0.75,-0.31 -1.43,-0.77 -1.99,-1.33 -0.56,-0.56 -1.02,-1.24 -1.33,-1.99 -0.3,-0.72 -0.46,-1.52 -0.46,-2.35 0,-0.83 0.17,-1.62 0.47,-2.35 0.31,-0.75 0.77,-1.43 1.33,-2 0.57,-0.57 1.24,-1.02 1.99,-1.34 0.72,-0.3 1.51,-0.47 2.34,-0.47 0.81,0 1.57,0.15 2.27,0.43 0.71,0.29 1.35,0.71 1.88,1.23 0.53,0.53 0.95,1.16 1.24,1.87 0.28,0.69 0.43,1.45 0.43,2.26l-0 0.1c0,0.46 0.01,0.95 -0.56,1.24 -0.09,0.04 -0.18,0.08 -0.27,0.1 -0.09,0.02 -0.18,0.04 -0.28,0.05 -0.08,0.01 -0.17,0.02 -0.25,0.02l-0.23 0 -7.59 0c0.1,0.28 0.23,0.55 0.39,0.79 0.2,0.3 0.44,0.56 0.71,0.79 0.31,0.26 0.67,0.46 1.06,0.6 0.37,0.13 0.77,0.21 1.19,0.21zm3.16 -4.73c-0.07,-0.28 -0.19,-0.54 -0.33,-0.78 -0.18,-0.29 -0.4,-0.56 -0.65,-0.78 -0.3,-0.26 -0.64,-0.46 -1.01,-0.6 -0.36,-0.13 -0.76,-0.21 -1.17,-0.21 -0.41,0 -0.81,0.07 -1.18,0.21 -0.38,0.14 -0.74,0.34 -1.06,0.6 -0.27,0.22 -0.51,0.49 -0.71,0.78 -0.16,0.24 -0.29,0.5 -0.39,0.78l6.5 0z"/>
  <path class="fil2" d="M47.9 0.96c0,-0.07 0.01,-0.13 0.02,-0.19 0.01,-0.06 0.03,-0.13 0.05,-0.18 0.02,-0.06 0.05,-0.12 0.09,-0.17 0.04,-0.05 0.08,-0.1 0.12,-0.14 0.04,-0.04 0.09,-0.08 0.15,-0.12 0.05,-0.03 0.11,-0.06 0.17,-0.08 0.06,-0.02 0.12,-0.04 0.18,-0.05 0.06,-0.01 0.13,-0.02 0.19,-0.02l0.7 0c0.07,0 0.13,0.01 0.19,0.02 0.06,0.01 0.12,0.03 0.18,0.05 0.06,0.02 0.11,0.05 0.17,0.08 0.05,0.03 0.1,0.07 0.14,0.11 0.04,0.04 0.08,0.09 0.11,0.13 0.03,0.05 0.06,0.1 0.09,0.16 0.02,0.05 0.04,0.11 0.06,0.17 0.02,0.06 0.03,0.12 0.03,0.18 0.05,0.34 0.08,0.66 0.11,1.01l0.01 0.18 0 0.17 0 6.23c0.08,1.11 0.37,1.94 0.59,2.55l0.01 0.02c0.11,0.32 0.2,0.58 0.25,0.82 0.02,0.13 0.03,0.26 0.02,0.38 -0.01,0.12 -0.05,0.23 -0.11,0.34l-0.03 0.06c-0.01,0.03 -0.03,0.06 -0.04,0.09 -0.02,0.03 -0.04,0.06 -0.06,0.09 -0.03,0.03 -0.06,0.06 -0.09,0.08 -0.04,0.03 -0.08,0.05 -0.13,0.08l-0.1 0.04 -0.3 0.1c-0.18,0.06 -0.4,0.13 -0.56,0.13 -0.16,0 -0.32,-0.04 -0.47,-0.1 -0.15,-0.07 -0.3,-0.17 -0.44,-0.3 -0.13,-0.12 -0.26,-0.27 -0.37,-0.45 -0.11,-0.17 -0.22,-0.37 -0.32,-0.6 -0.09,-0.2 -0.17,-0.43 -0.24,-0.68 -0.07,-0.24 -0.13,-0.5 -0.18,-0.77 -0.05,-0.27 -0.09,-0.55 -0.12,-0.84 -0.03,-0.28 -0.05,-0.58 -0.05,-0.89l-0.01 -7.68z"/>
  <path class="fil2" d="M57.25 12.57l2.54 -6.18c0.02,-0.05 0.04,-0.11 0.07,-0.15 0.03,-0.05 0.05,-0.09 0.08,-0.14 0.03,-0.05 0.07,-0.09 0.11,-0.13 0.04,-0.04 0.07,-0.08 0.12,-0.11 0.05,-0.04 0.1,-0.07 0.15,-0.1 0.05,-0.03 0.1,-0.05 0.16,-0.07 0.06,-0.02 0.12,-0.03 0.18,-0.04 0.06,-0.01 0.13,-0.01 0.19,-0.01l0.83 0 0.09 0.01 0.09 0.01c0.03,0.01 0.06,0.01 0.09,0.02l0.09 0.03c0.04,0.02 0.08,0.04 0.11,0.06 0.04,0.02 0.07,0.05 0.11,0.08 0.03,0.03 0.06,0.06 0.09,0.09 0.03,0.03 0.06,0.07 0.08,0.1 0.02,0.04 0.05,0.07 0.06,0.12 0.02,0.04 0.04,0.08 0.05,0.12 0.01,0.04 0.02,0.09 0.03,0.13 0.01,0.04 0.01,0.09 0.01,0.13 0,0.06 -0.01,0.12 -0.02,0.18l-0.02 0.09 -0.03 0.09 -6.07 14.39c-0.02,0.05 -0.05,0.1 -0.07,0.14 -0.03,0.05 -0.06,0.09 -0.09,0.13 -0.03,0.04 -0.07,0.08 -0.11,0.11 -0.04,0.04 -0.09,0.07 -0.13,0.1 -0.04,0.03 -0.09,0.05 -0.14,0.07 -0.05,0.02 -0.1,0.04 -0.15,0.05 -0.05,0.01 -0.11,0.02 -0.16,0.03 -0.05,0.01 -0.11,0.01 -0.16,0.01l-0.62 0c-0.04,0 -0.09,-0 -0.13,-0.01 -0.04,-0 -0.08,-0.01 -0.13,-0.02 -0.04,-0.01 -0.08,-0.02 -0.12,-0.03 -0.04,-0.01 -0.08,-0.02 -0.11,-0.04 -0.04,-0.01 -0.07,-0.03 -0.1,-0.05 -0.03,-0.02 -0.07,-0.04 -0.1,-0.06 -0.03,-0.02 -0.06,-0.05 -0.09,-0.08 -0.03,-0.03 -0.05,-0.06 -0.07,-0.09 -0.02,-0.03 -0.04,-0.07 -0.06,-0.1 -0.02,-0.03 -0.03,-0.07 -0.04,-0.11 -0.01,-0.04 -0.02,-0.08 -0.03,-0.11 -0.01,-0.04 -0.01,-0.08 -0.01,-0.12 0,-0.03 0,-0.07 0.01,-0.11 0,-0.04 0.01,-0.07 0.02,-0.11l0.03 -0.11c0.01,-0.04 0.03,-0.08 0.04,-0.12l1.9 -4.62 -3.82 -9.12c-0.03,-0.06 -0.04,-0.09 -0.06,-0.15 -0.02,-0.11 -0.03,-0.2 -0.04,-0.31 0,-0.27 0.08,-0.48 0.23,-0.61 0.15,-0.14 0.38,-0.21 0.68,-0.21l0.84 0c0.06,0 0.11,0 0.17,0.01 0.06,0.01 0.11,0.02 0.16,0.04 0.06,0.02 0.11,0.04 0.16,0.06 0.05,0.02 0.1,0.05 0.14,0.09 0.04,0.03 0.09,0.07 0.13,0.11 0.04,0.04 0.08,0.08 0.11,0.12 0.03,0.04 0.07,0.09 0.09,0.14 0.03,0.05 0.05,0.1 0.08,0.16l2.54 6.22z"/>
  <path class="fil3" d="M49.41 14.22c0.11,0 0.22,0.01 0.32,0.03 0.11,0.02 0.21,0.05 0.3,0.09 0.1,0.04 0.2,0.09 0.28,0.15 0.09,0.06 0.17,0.13 0.25,0.2 0.07,0.07 0.14,0.16 0.2,0.24 0.06,0.09 0.11,0.18 0.16,0.29l0 0c0.04,0.1 0.07,0.2 0.09,0.31 0.02,0.1 0.03,0.21 0.03,0.32 0,0.11 -0.01,0.21 -0.03,0.31 -0.02,0.11 -0.05,0.21 -0.09,0.3l-0 0c-0.04,0.1 -0.1,0.2 -0.16,0.29 -0.06,0.09 -0.13,0.17 -0.2,0.24 -0.07,0.07 -0.16,0.14 -0.24,0.2 -0.09,0.06 -0.18,0.11 -0.29,0.16l-0 0c-0.1,0.04 -0.2,0.07 -0.31,0.09 -0.1,0.02 -0.21,0.03 -0.32,0.03 -0.1,0 -0.21,-0.01 -0.31,-0.03 -0.1,-0.02 -0.21,-0.05 -0.3,-0.09 -0.1,-0.04 -0.19,-0.09 -0.28,-0.15 -0.09,-0.06 -0.17,-0.13 -0.25,-0.2 -0.07,-0.07 -0.14,-0.16 -0.2,-0.24 -0.06,-0.09 -0.11,-0.19 -0.16,-0.29l0 -0c-0.04,-0.1 -0.07,-0.2 -0.09,-0.3 -0.02,-0.1 -0.03,-0.21 -0.03,-0.31 0,-0.11 0.01,-0.21 0.03,-0.32 0.02,-0.11 0.05,-0.21 0.09,-0.31l0 -0c0.04,-0.1 0.1,-0.2 0.16,-0.29 0.06,-0.09 0.13,-0.17 0.2,-0.24 0.07,-0.07 0.16,-0.14 0.25,-0.2 0.09,-0.06 0.18,-0.11 0.28,-0.15 0.1,-0.04 0.2,-0.07 0.3,-0.09 0.1,-0.02 0.21,-0.03 0.32,-0.03z"/>
 </g>
</svg>
